# Blender 4.3.2
# www.blender.org
o Sphere.001
v 0.603295 -0.099414 -1.271761
v 0.445924 -1.278492 -0.358163
v 0.707878 -1.232234 0.035730
v 0.564626 -1.301261 0.259869
v 0.480530 0.108276 0.519479
v 0.418782 -1.278068 0.487779
v -0.548796 0.205664 1.335312
v -0.592058 -0.634759 0.570850
v -0.275307 0.766891 0.256076
v -0.311286 -1.177475 -0.411642
v -0.028007 0.293974 -1.375165
v 0.303968 0.823789 -1.157619
v 0.219144 -1.023053 -0.705594
v 0.015803 -0.198715 -1.259991
v 0.368575 1.023108 -0.577548
v 0.663489 0.622352 -1.200255
v 0.152729 -0.725280 -0.828838
v 0.682440 0.215946 -1.308923
v 0.659826 0.861087 -0.933875
v 0.454205 -0.453524 -0.999518
v 0.687081 -0.295085 -1.062594
v 0.443226 -0.687095 -0.788786
v 1.009745 0.372034 -0.883693
v 0.922974 0.018190 -1.022307
v 0.462431 -0.926051 -0.703751
v 0.573071 -0.506300 -0.744054
v 0.400557 0.982296 -0.879819
v 0.945933 0.430236 -1.016905
v 0.842097 -0.275596 -0.858689
v 1.022147 0.011907 -0.750240
v 0.742053 -1.022994 -0.414253
v 0.627622 0.944589 -0.575080
v 0.519690 -1.106956 -0.537340
v 1.059141 0.168474 -0.557599
v 0.808488 -0.704370 -0.549738
v 0.775724 0.819602 -0.453595
v 1.023322 0.452981 -0.505245
v 0.942255 -0.189281 -0.561031
v 0.935553 -0.832141 -0.278226
v 0.738108 -1.169832 -0.198468
v 0.964241 -0.001835 -0.325793
v 0.978580 0.350936 -0.285487
v 0.818697 0.016727 -0.088447
v 0.124763 -1.424149 -0.066326
v 0.966229 -0.423616 -0.311022
v 0.497530 0.425574 0.099856
v 0.536299 0.188570 0.104339
v 0.883476 -0.042229 0.159935
v 0.660284 0.144536 0.058021
v 1.027978 -0.348919 0.045286
v 0.888018 -1.049594 0.063238
v 0.618038 0.115306 0.386025
v 0.956414 -0.707849 0.431425
v 0.419573 0.223605 0.136022
v 0.233237 0.552678 0.084160
v 1.001099 -0.390725 0.311737
v 0.841336 -0.455251 0.635799
v 0.261060 0.345885 0.373187
v 0.284176 0.197259 0.351764
v 0.557723 -1.138990 0.587555
v 0.069652 0.488190 0.070911
v 0.813507 -0.628022 0.663837
v 0.304018 0.341755 0.314467
v 0.290466 -1.395381 0.260929
v 0.177141 0.394348 0.248042
v 0.561293 -0.444525 0.857807
v 0.099650 0.646064 0.722642
v 0.239290 -1.190459 0.668820
v 0.291088 0.342276 0.692352
v 0.295288 0.088002 0.849290
v 0.059403 -1.413577 0.207425
v 0.277068 -0.362721 0.927188
v 0.176939 0.451561 0.928391
v -0.101183 0.790272 0.718649
v -0.153534 -0.332448 1.162904
v -0.127681 0.577641 1.125235
v -0.243635 0.199995 1.330880
v -0.052775 -0.015983 1.253108
v -0.458321 0.808819 0.874848
v -0.422839 -0.816733 0.706407
v -0.026858 -1.394915 0.249838
v -0.215700 -0.558218 0.894921
v -0.172622 0.813111 0.486416
v -0.386925 0.866194 0.564855
v -0.766444 0.332229 1.236866
v -0.351997 -0.613759 0.810294
v -0.618235 -0.463549 1.058908
v -0.365475 0.693774 1.080117
v -0.149331 -1.075567 0.732280
v -0.477799 0.495237 1.246001
v -0.199968 -1.249958 0.506281
v -0.088946 -1.400510 0.132261
v -0.779237 -0.115523 1.232782
v -0.425264 -0.137081 1.321624
v -0.560559 0.845064 0.669946
v -1.062234 0.027834 0.998434
v -0.803893 -0.516549 0.809357
v -0.917609 -0.279599 1.022099
v -0.520947 -0.581802 0.891242
v -0.908653 -0.466617 0.585863
v -0.239109 -1.344447 0.160978
v -0.742976 0.708143 0.942750
v -0.435490 -1.058991 0.526174
v -0.968190 0.583599 0.821681
v -0.110730 0.542465 0.061267
v -1.154187 0.266037 0.708270
v -1.132559 0.154433 0.348902
v -1.059926 -0.226679 0.344000
v -1.073190 -0.254598 0.702984
v -1.162838 -0.016214 0.633698
v -0.884936 0.699105 0.564718
v -1.000426 0.456341 0.254909
v -0.928060 -0.316155 0.230575
v -0.757845 0.758381 0.403204
v -0.559101 0.768575 0.256483
v -0.157029 -1.381040 0.054447
v -0.235879 0.592952 0.055238
v -0.602863 -1.037911 -0.047473
v -0.390843 0.600811 0.021100
v -0.660651 -0.916279 0.240469
v -0.989143 0.102599 0.103788
v -0.649376 0.105924 -0.119751
v -0.712869 -0.398350 -0.075655
v -0.605898 -0.180662 -0.074150
v -0.247153 -1.323013 -0.152120
v -0.376643 0.736999 -0.038809
v -0.469191 -0.057019 -0.129605
v -0.599034 -0.977129 -0.247638
v -0.450831 0.879740 -0.275793
v -0.653055 -0.798740 -0.399204
v -0.410568 0.066096 -0.264424
v -0.680947 -0.555212 -0.281264
v -0.406985 -1.127229 -0.431506
v -0.590630 0.754598 -0.267691
v -0.637392 0.341110 -0.325298
v -0.301683 0.951449 -0.394046
v -0.440629 0.595593 -0.769607
v -0.331960 -0.300883 -0.634149
v -0.406094 -0.849486 -0.695320
v -0.385965 -0.055758 -0.307946
v -0.523260 0.840779 -0.522422
v -0.538234 -0.950507 -0.523404
v -0.647447 0.590433 -0.548698
v -0.492604 -0.661438 -0.673925
v -0.537150 0.297805 -0.615801
v -0.473274 0.133380 -0.934749
v -0.103619 0.793729 -0.098787
v -0.059699 -1.368687 -0.210123
v -0.290915 0.394253 -1.186604
v -0.141045 0.907806 -0.263970
v -0.445010 0.452296 -0.932797
v -0.131147 -1.276982 -0.384780
v -0.233847 0.859775 -0.696112
v -0.206485 -0.312041 -0.985401
v 0.042503 0.937527 -0.935333
v -0.038166 0.711625 -1.194497
v -0.119964 -0.859946 -0.757819
v 0.078227 -0.406581 -1.087384
v -0.100782 -1.013468 -0.675759
v 0.118039 -1.219898 -0.542059
v -0.079412 0.907208 -0.373165
v 0.220162 -1.425443 0.013901
v 0.131664 -1.424763 0.178160
v -0.006655 0.488447 0.089767
v -0.074632 0.609715 0.023420
v -0.002025 0.599150 -0.001549
v -0.003567 0.624909 0.003031
v -0.214551 0.756256 -1.009496
v -0.018855 -0.493695 -0.820148
v 0.036164 0.839949 -0.167642
v 0.076728 1.018385 -0.623265
v 0.333531 -0.239924 -1.269611
v 0.218281 -0.543328 -0.840271
v 0.280565 0.586284 -1.347269
v 0.290599 0.105219 -1.420637
v 0.090931 -1.348840 -0.325760
v 0.023950 -1.419251 -0.088571
v 0.477955 0.955664 -0.362222
v 0.931402 0.681888 -0.636601
v 0.226945 -1.386104 -0.218813
v 0.786851 -0.370437 -0.556411
v 0.259168 0.959956 -0.283555
v 0.468388 -1.370548 -0.044234
v 0.871259 -0.169953 -0.307920
v 0.117060 0.789814 -0.081963
v 0.121230 0.721864 -0.023628
v 0.468681 0.804755 -0.108265
v 0.773489 0.721036 -0.237471
v 0.613271 0.608468 -0.021673
v 0.813874 0.429448 -0.082525
v 1.023056 -0.653191 -0.141715
v 0.082922 0.658838 0.007411
v 0.952355 -0.179956 -0.105849
v 1.032858 -0.741655 0.123832
v 0.383218 0.651394 0.032606
v 0.035373 0.590150 0.028152
v 0.809641 -0.135831 0.507108
v 0.280255 0.387960 0.128698
v 0.798975 -1.067975 0.386802
v 0.323039 0.289734 0.233641
v 0.675367 -0.171256 0.688870
v 0.653985 -0.877554 0.728093
v 0.020432 0.491510 0.059826
v 0.257237 -0.124863 0.840426
v 0.449953 -0.752344 0.881646
v 0.207432 0.510981 0.475167
v 0.278329 -0.955885 0.851355
v 0.339050 0.067905 0.646836
v 0.049128 0.313249 1.156842
v 0.123351 0.036541 1.125741
v 0.147092 -0.174158 1.010441
v 0.115534 0.534688 0.284660
v 0.208223 -0.597005 0.962983
v -0.068477 -0.859023 0.880193
v 0.024548 0.693450 0.420031
v 0.011936 -0.412792 0.940788
v 0.057645 -1.311414 0.511073
v -0.277374 -0.506277 1.015863
v -0.093349 0.618234 0.147146
v -0.623802 -0.788959 0.461335
v -0.500297 -1.161600 0.212331
v -0.977565 0.364168 1.038269
v -0.060087 0.490859 0.055768
v -0.708876 -0.540888 0.320442
v -1.086479 0.451332 0.502977
v -0.730579 -0.776426 0.109157
v -0.867213 -0.097525 0.017270
v -0.726719 -0.399497 0.126670
v -0.741180 -0.661397 -0.035065
v -0.643493 0.559125 0.038120
v -0.838636 0.544026 0.142471
v -0.783312 0.321532 -0.034853
v -0.424585 -1.224520 -0.079014
v -0.105998 0.681872 -0.000518
v -0.541737 0.458886 -0.055083
v -0.456071 0.136057 -0.149332
v -0.132647 0.759440 -0.051466
v -0.279221 -1.331366 0.005956
v -0.653188 0.498540 -0.250175
v -0.615924 -0.507582 -0.473758
v -0.571122 -0.235378 -0.298099
v -0.600133 0.422025 -0.607202
v -0.273985 0.864730 -0.149734
v -0.497217 0.139164 -0.428700
v -0.124728 -1.365841 -0.164979
v -0.474541 -0.066233 -0.686709
v -0.403286 -0.164855 -0.480579
v -0.449233 0.836838 -0.639491
v -0.203518 -0.404150 -0.737365
v -0.181189 0.895714 -0.602427
v -0.285903 -1.049212 -0.631938
v -0.347399 -0.167272 -0.963672
v -0.180907 -0.620757 -0.783599
v -0.237851 0.002115 -1.217275
v -0.025199 0.788971 -0.141781
vn 0.4354 -0.3955 -0.8087
vn 0.3334 -0.8269 -0.4528
vn 0.6188 -0.7855 0.0051
vn 0.4774 -0.8488 0.2274
vn 0.3024 0.8306 0.4676
vn 0.3038 -0.8349 0.4589
vn -0.1744 0.1070 0.9788
vn -0.6869 -0.6290 0.3641
vn 0.1855 0.8758 -0.4456
vn -0.4042 -0.8125 -0.4201
vn -0.3416 0.0780 -0.9366
vn 0.0662 0.7436 -0.6654
vn 0.0827 -0.5373 -0.8393
vn -0.3067 -0.4952 -0.8129
vn 0.1235 0.9913 0.0461
vn 0.4890 0.4756 -0.7312
vn 0.0017 -0.2139 -0.9768
vn 0.5128 0.0085 -0.8585
vn 0.5205 0.7590 -0.3911
vn 0.2289 -0.8409 -0.4904
vn 0.5261 -0.6406 -0.5593
vn 0.3302 -0.1629 -0.9297
vn 0.9522 0.1494 -0.2663
vn 0.8137 -0.2517 -0.5239
vn 0.3678 -0.4230 -0.8281
vn 0.5505 -0.5174 -0.6551
vn 0.1599 0.9320 -0.3252
vn 0.8169 0.2658 -0.5119
vn 0.7280 -0.6219 -0.2886
vn 0.9485 -0.2662 -0.1717
vn 0.6543 -0.5400 -0.5294
vn 0.4698 0.8821 0.0338
vn 0.4151 -0.6426 -0.6440
vn 0.9938 -0.0747 0.0828
vn 0.7217 -0.1886 -0.6660
vn 0.6472 0.7320 0.2128
vn 0.9453 0.2923 0.1451
vn 0.8557 -0.5112 0.0804
vn 0.8697 -0.3414 -0.3565
vn 0.6517 -0.7038 -0.2828
vn 0.8899 -0.2617 0.3737
vn 0.8848 0.1445 0.4430
vn 0.8976 0.3216 0.3015
vn 0.0299 -0.9924 -0.1193
vn 0.9039 0.1305 -0.4073
vn 0.2874 0.2293 0.9300
vn 0.4234 0.6201 0.6605
vn 0.7869 0.6016 0.1375
vn 0.6433 0.5383 0.5444
vn 0.9765 0.2153 -0.0087
vn 0.8261 -0.5634 0.0112
vn 0.4594 0.8264 0.3257
vn 0.8864 -0.2134 0.4108
vn 0.4185 0.6072 0.6754
vn -0.0595 0.3624 0.9301
vn 0.9396 0.1883 0.2857
vn 0.7695 0.1284 0.6256
vn 0.8971 0.4410 0.0265
vn 0.7789 0.5703 0.2610
vn 0.4638 -0.6685 0.5814
vn -0.0509 0.6746 0.7364
vn 0.7147 -0.1381 0.6857
vn 0.8059 0.5654 0.1755
vn 0.1778 -0.9555 0.2353
vn 0.6509 0.7525 -0.0999
vn 0.4515 0.1222 0.8839
vn 0.6868 0.7029 0.1850
vn 0.0992 -0.7190 0.6879
vn 0.9416 0.3166 0.1146
vn 0.9264 0.0072 0.3765
vn -0.0819 -0.9759 0.2021
vn 0.1617 0.2435 0.9563
vn 0.7787 0.4474 0.4400
vn 0.4058 0.8907 0.2050
vn 0.3280 -0.5645 0.7575
vn 0.3898 0.6158 0.6847
vn 0.2288 0.1428 0.9629
vn 0.4716 -0.1830 0.8626
vn -0.0255 0.9298 0.3672
vn -0.6169 -0.3152 0.7212
vn -0.2100 -0.9440 0.2546
vn -0.0349 -0.5875 0.8084
vn 0.3296 0.9291 -0.1675
vn 0.0300 0.9982 -0.0522
vn -0.4775 0.2947 0.8277
vn -0.3037 -0.6672 0.6802
vn -0.2453 -0.7176 0.6518
vn 0.0649 0.7810 0.6212
vn -0.3017 -0.5911 0.7481
vn -0.0847 0.5142 0.8535
vn -0.3776 -0.7991 0.4678
vn -0.2059 -0.9781 0.0310
vn -0.4659 -0.2725 0.8418
vn -0.0166 -0.3392 0.9406
vn -0.2357 0.9680 0.0856
vn -0.8407 -0.0940 0.5332
vn -0.5168 -0.8099 0.2774
vn -0.6643 -0.5106 0.5459
vn -0.1389 -0.9148 0.3792
vn -0.6581 -0.7516 -0.0455
vn -0.4285 -0.8874 0.1704
vn -0.4220 0.7748 0.4707
vn -0.6440 -0.5708 0.5094
vn -0.7327 0.6150 0.2913
vn 0.5626 0.8028 0.1972
vn -0.9649 0.2083 0.1600
vn -0.9435 0.0533 -0.3270
vn -0.8459 -0.4277 -0.3187
vn -0.8639 -0.4790 0.1557
vn -0.9853 -0.1635 0.0490
vn -0.6220 0.7822 -0.0348
vn -0.7701 0.4531 -0.4491
vn -0.6651 -0.5870 -0.4615
vn -0.4493 0.8560 -0.2557
vn -0.1836 0.8753 -0.4474
vn -0.2645 -0.9634 -0.0445
vn 0.1868 0.9669 0.1739
vn -0.8302 -0.5498 -0.0922
vn -0.3919 0.9166 0.0791
vn -0.8811 -0.4196 0.2184
vn -0.7614 0.0075 -0.6483
vn -0.3128 0.0186 -0.9497
vn -0.9466 0.2704 -0.1756
vn -0.7249 0.1438 -0.6737
vn -0.4357 -0.8678 -0.2388
vn -0.3563 0.5598 0.7481
vn -0.6637 0.2215 -0.7145
vn -0.8432 -0.5024 -0.1912
vn -0.4608 0.8343 0.3027
vn -0.9517 -0.1964 -0.2359
vn -0.9455 -0.3232 -0.0391
vn -0.9633 0.0763 -0.2574
vn -0.5267 -0.8210 -0.2203
vn -0.8103 0.5010 0.3041
vn -0.9282 -0.3623 0.0843
vn -0.1123 0.9937 0.0027
vn -0.7767 0.3619 -0.5155
vn -0.8462 -0.1318 -0.5163
vn -0.4464 -0.2919 -0.8459
vn -0.9814 0.1589 -0.1078
vn -0.6694 0.7074 -0.2268
vn -0.7274 -0.4744 -0.4958
vn -0.9269 0.1601 -0.3396
vn -0.6296 0.0500 -0.7753
vn -0.9477 -0.2064 -0.2436
vn -0.9146 -0.1165 -0.3871
vn 0.2801 0.7438 0.6069
vn -0.2090 -0.9374 -0.2787
vn -0.6816 0.2052 -0.7023
vn 0.2546 0.9117 0.3223
vn -0.8791 0.2628 -0.3975
vn -0.2774 -0.8166 -0.5062
vn -0.4185 0.8415 -0.3416
vn -0.5803 -0.6769 -0.4529
vn -0.2609 0.8813 -0.3940
vn -0.3575 0.5773 -0.7341
vn -0.1512 -0.3215 -0.9348
vn -0.2132 -0.7885 -0.5769
vn -0.1248 -0.6012 -0.7893
vn -0.0162 -0.7571 -0.6531
vn -0.0298 0.9788 0.2027
vn 0.1279 -0.9904 -0.0523
vn -0.0130 -0.9908 0.1345
vn 0.3464 0.9105 -0.2259
vn 0.2739 0.3804 0.8833
vn -0.2277 0.1736 0.9581
vn -0.3857 0.2043 0.8997
vn -0.6037 0.6407 -0.4744
vn -0.3442 -0.4947 -0.7980
vn -0.2815 0.7750 0.5659
vn -0.2220 0.9750 -0.0016
vn 0.0951 -0.5837 -0.8064
vn 0.0275 -0.5593 -0.8285
vn 0.0436 0.4052 -0.9132
vn 0.0384 -0.1317 -0.9905
vn -0.0317 -0.9024 -0.4297
vn -0.4410 -0.8972 0.0237
vn 0.2950 0.8916 0.3436
vn 0.8243 0.5646 -0.0417
vn 0.1248 -0.9443 -0.3045
vn 0.8593 -0.3461 -0.3766
vn -0.0232 0.9020 0.4311
vn 0.3609 -0.9268 -0.1040
vn 0.9987 -0.0457 -0.0205
vn -0.1518 0.6964 0.7014
vn -0.1361 0.5902 0.7957
vn 0.2475 0.7182 0.6503
vn 0.6442 0.5975 0.4775
vn 0.4394 0.4506 0.7771
vn 0.6813 0.2263 0.6961
vn 0.9686 -0.1156 -0.2200
vn -0.1806 0.4781 0.8595
vn 0.8872 0.4251 -0.1794
vn 0.9684 -0.2366 0.0786
vn 0.1234 0.5134 0.8492
vn -0.3738 0.2834 0.8831
vn 0.7321 0.4990 0.4637
vn 0.3076 0.5527 0.7746
vn 0.7237 -0.5872 0.3626
vn 0.8047 0.5071 0.3087
vn 0.5370 0.4640 0.7045
vn 0.5680 -0.3811 0.7295
vn -0.0572 0.8111 0.5821
vn 0.6670 0.1043 0.7377
vn 0.3548 -0.2260 0.9072
vn 0.8328 0.5379 -0.1311
vn 0.1406 -0.4799 0.8660
vn 0.7636 0.4822 0.4295
vn 0.6158 0.2659 0.7416
vn 0.7288 -0.0852 0.6794
vn 0.7351 -0.3886 0.5556
vn 0.7025 0.5739 -0.4208
vn 0.0653 -0.0758 0.9950
vn -0.2231 -0.3480 0.9106
vn 0.5806 0.7789 -0.2370
vn 0.2609 -0.3106 0.9140
vn -0.0712 -0.8647 0.4971
vn 0.1519 -0.7845 0.6013
vn 0.4337 0.7158 -0.5474
vn -0.8566 -0.2775 0.4350
vn -0.6941 -0.6969 0.1806
vn -0.7375 0.3330 0.5876
vn 0.4601 0.8516 0.2513
vn -0.8780 -0.4785 -0.0146
vn -0.8777 0.4644 -0.1184
vn -0.9719 -0.2290 0.0542
vn -0.5906 -0.2617 -0.7634
vn -0.8912 -0.2678 -0.3662
vn -0.9868 -0.0939 -0.1317
vn -0.3014 0.6210 -0.7236
vn -0.5500 0.5941 -0.5870
vn -0.4845 0.2597 -0.8354
vn -0.6382 -0.7538 -0.1563
vn 0.2492 0.5315 0.8096
vn -0.8495 0.4109 -0.3310
vn -0.7932 -0.2434 -0.5583
vn 0.1605 0.6443 0.7477
vn -0.4757 -0.8786 -0.0429
vn -0.9585 0.0123 0.2848
vn -0.8403 0.2478 -0.4823
vn -0.7832 0.4970 -0.3736
vn -0.8216 -0.2343 -0.5198
vn -0.0744 0.8301 0.5526
vn -0.9081 -0.4113 0.0782
vn -0.2481 -0.9470 -0.2040
vn -0.9317 -0.3577 -0.0637
vn -0.9794 -0.0010 -0.2019
vn -0.4557 0.6782 -0.5765
vn -0.6267 -0.3036 -0.7177
vn -0.2555 0.9574 -0.1343
vn -0.2226 -0.6861 -0.6926
vn -0.7729 -0.4865 -0.4073
vn -0.2685 -0.0004 -0.9633
vn -0.6106 -0.2695 -0.7447
vn 0.0434 0.7624 0.6456
vt 0.785852 0.291683
vt 0.754177 0.330477
vt 0.722477 0.271641
vt 0.774292 0.242727
vt 0.753058 0.669310
vt 0.740959 0.750788
vt 0.708475 0.691805
vt 0.703444 0.198495
vt 0.716326 0.627338
vt 0.716331 0.524721
vt 0.751382 0.568419
vt 0.803284 0.097670
vt 0.714295 0.140307
vt 0.710944 0.077541
vt 0.747026 0.451703
vt 0.709742 0.443001
vt 0.777969 0.878591
vt 0.700763 0.935134
vt 0.636414 0.871436
vt 0.682764 0.377059
vt 0.736103 0.387905
vt 0.646321 0.342337
vt 0.706442 0.326288
vt 0.666965 0.290016
vt 0.730706 0.822989
vt 0.683892 0.754043
vt 0.657833 0.812523
vt 0.657180 0.239515
vt 0.669264 0.635453
vt 0.672628 0.546856
vt 0.689158 0.041300
vt 0.701172 0.007812
vt 0.703125 0.000000
vt 0.629517 0.189467
vt 0.611674 0.136863
vt 0.639581 0.599871
vt 0.679946 0.480706
vt 0.661420 0.431077
vt 0.653546 0.705559
vt 0.619657 0.764494
vt 0.593464 0.297569
vt 0.633728 0.505520
vt 0.616757 0.582661
vt 0.626405 0.434563
vt 0.616839 0.068326
vt 0.512312 0.106711
vt 0.597287 0.383119
vt 0.604892 0.819644
vt 0.599648 0.674089
vt 0.580028 0.220047
vt 0.548789 0.374464
vt 0.548532 0.269924
vt 0.586049 0.735208
vt 0.542902 0.186327
vt 0.573107 0.617937
vt 0.578107 0.545355
vt 0.586547 0.445511
vt 0.553490 0.498529
vt 0.554406 0.441094
vt 0.600437 0.502411
vt 0.579941 0.948957
vt 0.539953 0.828250
vt 0.546496 0.606183
vt 0.521759 0.502609
vt 0.544859 0.980041
vt 0.540735 0.941401
vt 0.558594 0.953125
vt 0.518080 0.439731
vt 0.523353 0.321299
vt 0.550986 0.725809
vt 0.489369 0.827581
vt 0.507926 0.746435
vt 0.481086 0.301146
vt 0.489171 0.221357
vt 0.490832 0.166594
vt 0.517924 0.651833
vt 0.519899 0.020914
vt 0.495151 0.041066
vt 0.494347 0.560810
vt 0.469534 0.482891
vt 0.501128 0.960816
vt 0.523169 0.964281
vt 0.515182 0.985132
vt 0.515625 0.000000
vt 0.491785 0.394746
vt 0.447964 0.868962
vt 0.451593 0.386701
vt 0.450967 0.640242
vt 0.421102 0.784515
vt 0.399892 0.705557
vt 0.472226 0.606681
vt 0.470441 0.727017
vt 0.429300 0.220010
vt 0.432843 0.143102
vt 0.450280 0.988622
vt 0.459544 0.961179
vt 0.453125 1.000000
vt 0.412880 0.455706
vt 0.432839 0.310268
vt 0.396030 0.372432
vt 0.393167 0.323437
vt 0.366206 0.547376
vt 0.416534 0.537991
vt 0.431211 0.962655
vt 0.399715 0.963518
vt 0.367379 0.266446
vt 0.368897 0.200635
vt 0.370122 0.705325
vt 0.359117 0.628493
vt 0.364887 0.142370
vt 0.388089 0.084467
vt 0.370304 0.435309
vt 0.355243 0.786879
vt 0.343168 0.369653
vt 0.304226 0.833305
vt 0.348578 0.699650
vt 0.326103 0.529112
vt 0.309547 0.744685
vt 0.312248 0.629460
vt 0.306141 0.175013
vt 0.264771 0.121960
vt 0.295642 0.445333
vt 0.359608 0.935948
vt 0.326017 0.968251
vt 0.230659 0.932848
vt 0.296443 0.386437
vt 0.253640 0.821192
vt 0.271507 0.726693
vt 0.284687 0.325459
vt 0.300276 0.236493
vt 0.325102 0.293096
vt 0.278392 0.639665
vt 0.303914 0.047004
vt 0.352286 0.045095
vt 0.298357 0.007330
vt 0.305639 0.042498
vt 0.294922 0.007812
vt 0.257620 0.582642
vt 0.267036 0.507404
vt 0.239490 0.049692
vt 0.240830 0.497470
vt 0.265207 0.009902
vt 0.250829 0.368215
vt 0.272588 0.446436
vt 0.229222 0.413964
vt 0.240767 0.251033
vt 0.220619 0.201888
vt 0.190763 0.817692
vt 0.225490 0.758556
vt 0.211529 0.322569
vt 0.205265 0.360218
vt 0.185614 0.133351
vt 0.200016 0.470701
vt 0.157199 0.906037
vt 0.220944 0.547807
vt 0.189466 0.610721
vt 0.186396 0.544453
vt 0.232198 0.644818
vt 0.198572 0.667095
vt 0.162282 0.040698
vt 0.212023 0.964407
vt 0.202420 0.982858
vt 0.165099 0.392101
vt 0.125573 0.847943
vt 0.183859 0.305782
vt 0.173605 0.715101
vt 0.154361 0.781244
vt 0.165935 0.340337
vt 0.145360 0.669451
vt 0.163771 0.249725
vt 0.139619 0.180241
vt 0.161150 0.571198
vt 0.089990 0.062508
vt 0.130703 0.576825
vt 0.119448 0.509544
vt 0.153123 0.944913
vt 0.125576 0.948786
vt 0.124468 0.367090
vt 0.123531 0.295322
vt 0.138240 0.742910
vt 0.091585 0.684766
vt 0.103208 0.248949
vt 0.056025 0.204119
vt 0.111943 0.634144
vt 0.089924 0.563981
vt 0.080240 0.496153
vt 0.105466 0.983262
vt 0.109449 0.998576
vt 0.107422 0.992188
vt 0.096356 0.065354
vt 0.108770 0.012317
vt 0.123695 0.027603
vt 0.109375 0.000000
vt 0.132858 0.438651
vt 0.092574 0.436449
vt 0.077112 0.925374
vt 0.091207 0.372744
vt 0.080152 0.724840
vt 0.073198 0.781775
vt 0.048022 0.542600
vt 0.056696 0.443697
vt 0.010836 0.809779
vt 0.069308 0.307631
vt 0.070353 0.614263
vt 0.043324 0.621875
vt 0.031799 0.679969
vt 0.013303 0.728064
vt 0.005293 0.174643
vt 0.065981 0.140238
vt 0.019534 0.062043
vt 0.051167 0.031451
vt 0.056468 0.961512
vt 0.035417 0.877590
vt 0.041427 0.396726
vt 0.025976 0.343312
vt 0.006969 0.261489
vt 0.029348 0.236508
vt 0.018991 0.537520
vt 0.009287 0.471738
vt 0.006615 0.947971
vt 0.002849 0.843646
vt 0.001984 0.760695
vt 0.003524 0.628407
vt 0.000000 0.097149
vt 0.027774 0.952084
vt 0.015946 0.995339
vt 0.984838 0.273830
vt 0.933485 0.184854
vt 0.989225 0.218959
vt 0.984474 0.173737
vt 0.969073 0.105626
vt 0.999145 0.134123
vt 0.977089 0.970856
vt 0.979001 0.945935
vt 0.980717 0.984302
vt 0.997747 0.465942
vt 0.973555 0.552206
vt 0.981577 0.411896
vt 0.976514 0.848111
vt 0.948178 0.954530
vt 1.000000 0.395841
vt 0.978902 0.342900
vt 0.997341 0.354805
vt 0.981626 0.721097
vt 0.998758 0.788657
vt 0.911486 0.888993
vt 0.957183 0.462407
vt 0.925028 0.385840
vt 0.908765 0.830009
vt 0.934180 0.295929
vt 0.921760 0.638100
vt 0.950116 0.587531
vt 0.990461 0.614307
vt 0.931034 0.069890
vt 0.992597 0.065040
vt 0.912679 0.543487
vt 0.965995 0.049686
vt 0.951677 0.011644
vt 0.955078 0.007812
vt 0.953125 0.000000
vt 0.869230 0.156743
vt 0.855360 0.133329
vt 0.884799 0.556609
vt 0.920209 0.984768
vt 0.932736 0.937722
vt 0.922118 0.999027
vt 0.910890 0.956061
vt 0.891619 0.465121
vt 0.894034 0.309682
vt 0.911476 0.242823
vt 0.930413 0.772443
vt 0.887007 0.699122
vt 0.940078 0.696709
vt 0.876349 0.211195
vt 0.853685 0.843386
vt 0.874787 0.768461
vt 0.850716 0.286454
vt 0.874279 0.650340
vt 0.862445 0.612899
vt 0.843149 0.477454
vt 0.861201 0.416975
vt 0.822794 0.369145
vt 0.840207 0.753768
vt 0.834197 0.241674
vt 0.830275 0.690284
vt 0.801668 0.800856
vt 0.796985 0.760566
vt 0.791290 0.345578
vt 0.817423 0.185836
vt 0.822221 0.542473
vt 0.803601 0.453341
vt 0.835668 0.944018
vt 0.774426 0.945563
vt 0.831679 0.895673
vt 0.779910 0.502720
vt 0.805404 0.965883
vt 0.785612 0.943351
vt 0.800565 0.024157
vt 0.790848 0.043882
vt 0.796875 0.000000
vt 0.779967 0.402101
vt 0.820670 0.629337
vt 0.782818 0.698172
vt 0.782645 0.605011
vt 0.774823 0.190835
vt 0.771739 0.042065
vt 0.762519 0.013203
vt 0.765625 0.000000
vt 0.645588 0.044242
vt 0.639420 0.992093
vt 0.593174 0.936154
vt 0.649405 0.964879
vt 0.636528 0.022907
vt 0.573427 0.029724
vt 0.431751 0.036921
vt 0.417315 0.033234
vt 0.358861 0.996227
vt 0.358119 0.943180
vt 0.393963 0.970814
vt 0.351563 0.968750
vt 0.300428 0.541048
vt 0.259768 0.976573
vt 0.287888 0.960025
vt 0.267130 0.991396
vt 0.160782 0.476712
vt 0.007738 0.321762
vt 0.996536 0.704363
vt 0.861803 0.046041
vt 0.879474 0.938883
vt 0.757009 0.965536
vt 0.764983 0.988034
s 1
f 253/1/253 169/2/169 17/3/17
f 157/4/157 253/1/253 17/3/17
f 156/5/156 155/6/155 12/7/12
f 157/4/157 17/3/17 13/8/13
f 156/5/156 12/7/12 174/9/174
f 174/9/174 175/10/175 11/11/11
f 152/12/152 160/13/160 176/14/176
f 11/11/11 175/10/175 14/15/14
f 175/10/175 172/16/172 14/15/14
f 161/17/161 170/18/170 182/19/182
f 172/16/172 20/20/20 158/21/158
f 20/20/20 26/22/26 173/23/173
f 173/23/173 26/22/26 22/24/22
f 155/6/155 171/25/171 27/26/27
f 171/25/171 15/27/15 27/26/27
f 17/3/17 22/24/22 25/28/25
f 174/9/174 12/7/12 16/29/16
f 174/9/174 18/30/18 175/10/175
f 177/31/177 44/32/44 163/33/163
f 160/13/160 13/8/13 33/34/33
f 160/13/160 33/34/33 2/35/2
f 18/30/18 16/29/16 28/36/28
f 172/16/172 1/37/1 21/38/21
f 27/26/27 19/39/19 12/7/12
f 15/27/15 32/40/32 27/26/27
f 22/24/22 26/22/26 35/41/35
f 18/30/18 28/36/28 24/42/24
f 28/36/28 23/43/23 24/42/24
f 1/37/1 18/30/18 24/42/24
f 21/38/21 24/42/24 29/44/29
f 21/38/21 29/44/29 26/22/26
f 20/20/20 21/38/21 26/22/26
f 180/45/180 2/35/2 183/46/183
f 26/22/26 29/44/29 181/47/181
f 178/48/178 32/40/32 15/27/15
f 26/22/26 181/47/181 35/41/35
f 32/40/32 179/49/179 19/39/19
f 25/28/25 35/41/35 31/50/31
f 181/47/181 45/51/45 35/41/35
f 35/41/35 45/51/45 39/52/39
f 178/48/178 36/53/36 32/40/32
f 33/34/33 31/50/31 40/54/40
f 23/43/23 37/55/37 34/56/34
f 38/57/38 41/58/41 184/59/184
f 30/60/30 34/56/34 38/57/38
f 185/61/185 187/62/187 182/19/182
f 182/19/182 187/62/187 178/48/178
f 34/56/34 42/63/42 41/58/41
f 42/63/42 43/64/43 41/58/41
f 167/65/167 186/66/186 185/67/185
f 184/59/184 43/64/43 193/68/193
f 39/52/39 45/51/45 191/69/191
f 188/70/188 42/63/42 37/55/37
f 195/71/195 189/72/189 187/62/187
f 187/62/187 189/72/189 188/70/188
f 39/52/39 191/69/191 194/73/194
f 40/54/40 51/74/51 3/75/3
f 42/63/42 190/76/190 43/64/43
f 44/77/44 183/46/183 162/78/162
f 43/64/43 49/79/49 48/80/48
f 192/81/192 186/82/186 167/83/167
f 44/77/44 162/78/162 163/84/163
f 186/66/186 195/71/195 187/62/187
f 45/51/45 193/68/193 50/85/50
f 191/69/191 50/85/50 194/73/194
f 192/81/192 55/86/55 195/71/195
f 50/85/50 48/80/48 56/87/56
f 54/88/54 198/89/198 200/90/200
f 47/91/47 46/92/46 54/88/54
f 3/75/3 51/74/51 199/93/199
f 3/75/3 199/93/199 4/94/4
f 196/95/196 167/96/167 166/97/166
f 48/80/48 197/98/197 56/87/56
f 194/73/194 56/87/56 53/99/53
f 197/98/197 57/100/57 56/87/56
f 57/100/57 62/101/62 53/99/53
f 54/88/54 5/102/5 52/103/52
f 167/104/167 196/105/196 55/86/55
f 202/106/202 60/107/60 199/93/199
f 63/108/63 59/109/59 200/90/200
f 6/110/6 64/111/64 4/94/4
f 52/103/52 201/112/201 197/98/197
f 198/89/198 65/113/65 200/90/200
f 62/101/62 202/106/202 53/99/53
f 200/90/200 65/113/65 63/108/63
f 201/112/201 66/114/66 57/100/57
f 66/114/66 202/106/202 62/101/62
f 65/113/65 212/115/212 58/116/58
f 63/108/63 65/113/65 58/116/58
f 63/108/63 58/116/58 59/109/59
f 5/102/5 201/112/201 52/103/52
f 5/102/5 208/117/208 201/112/201
f 58/116/58 206/118/206 69/119/69
f 60/107/60 68/120/68 6/110/6
f 6/110/6 217/121/217 64/111/64
f 208/117/208 204/122/204 201/112/201
f 61/123/61 203/124/203 164/125/164
f 204/122/204 72/126/72 66/114/66
f 65/113/65 164/125/164 212/115/212
f 206/118/206 212/115/212 215/127/215
f 206/118/206 215/127/215 67/128/67
f 213/129/213 207/130/207 205/131/205
f 69/119/69 67/128/67 73/132/73
f 68/120/68 217/121/217 6/110/6
f 217/121/217 71/133/71 163/134/163
f 163/135/163 71/136/71 92/137/92
f 73/132/73 209/138/209 210/139/210
f 217/121/217 81/140/81 71/133/71
f 209/138/209 78/141/78 210/139/210
f 71/133/71 81/140/81 92/142/92
f 204/122/204 216/143/216 72/126/72
f 211/144/211 75/145/75 216/143/216
f 213/129/213 214/146/214 207/130/207
f 207/130/207 89/147/89 68/120/68
f 214/146/214 89/147/89 207/130/207
f 215/127/215 83/148/83 74/149/74
f 216/143/216 82/150/82 213/129/213
f 75/145/75 218/151/218 216/143/216
f 89/147/89 91/152/91 217/121/217
f 210/139/210 78/141/78 75/145/75
f 78/141/78 94/153/94 75/145/75
f 212/115/212 164/125/164 219/154/219
f 77/155/77 90/156/90 7/157/7
f 76/158/76 88/159/88 90/156/90
f 91/152/91 92/160/92 81/140/81
f 7/157/7 94/153/94 77/155/77
f 203/161/203 223/162/223 164/125/164
f 94/153/94 87/163/87 75/145/75
f 215/127/215 219/154/219 9/164/9
f 218/151/218 86/165/86 82/150/82
f 88/159/88 74/149/74 79/166/79
f 76/158/76 74/149/74 88/159/88
f 74/149/74 84/167/84 79/166/79
f 87/163/87 99/168/99 218/151/218
f 88/159/88 79/166/79 102/169/102
f 80/170/80 103/171/103 89/147/89
f 90/156/90 88/159/88 102/169/102
f 89/147/89 103/171/103 91/152/91
f 90/156/90 85/172/85 7/157/7
f 90/156/90 102/169/102 85/172/85
f 91/152/91 101/173/101 92/160/92
f 85/172/85 222/174/222 96/175/96
f 219/154/219 164/176/164 223/177/223
f 9/164/9 84/167/84 83/148/83
f 99/168/99 87/163/87 97/178/97
f 99/168/99 97/178/97 8/179/8
f 102/169/102 222/174/222 85/172/85
f 95/180/95 111/181/111 102/169/102
f 220/182/220 120/183/120 103/171/103
f 104/184/104 106/185/106 222/174/222
f 96/175/96 106/185/106 110/186/110
f 105/187/105 166/188/166 165/189/165
f 92/160/92 101/190/101 116/191/116
f 92/192/92 116/191/116 163/193/163
f 98/194/98 96/175/96 109/195/109
f 223/177/223 105/196/105 219/154/219
f 97/178/97 109/195/109 100/197/100
f 84/167/84 114/198/114 95/180/95
f 9/164/9 115/199/115 84/167/84
f 110/186/110 107/200/107 108/201/108
f 9/164/9 119/202/119 115/199/115
f 8/179/8 100/197/100 224/203/224
f 8/179/8 224/203/224 220/182/220
f 111/181/111 225/204/225 104/184/104
f 111/181/111 112/205/112 225/204/225
f 114/198/114 112/205/112 111/181/111
f 115/199/115 231/206/231 114/198/114
f 115/199/115 230/207/230 231/206/231
f 114/198/114 231/206/231 112/205/112
f 120/183/120 118/208/118 221/209/221
f 101/173/101 238/210/238 116/211/116
f 221/209/221 238/210/238 101/173/101
f 225/204/225 107/200/107 106/185/106
f 165/212/165 117/213/117 105/196/105
f 117/213/117 119/202/119 9/164/9
f 224/203/224 113/214/113 228/215/228
f 119/202/119 230/207/230 115/199/115
f 228/215/228 229/216/229 226/217/226
f 108/201/108 121/218/121 227/219/227
f 117/213/117 234/220/234 126/221/126
f 117/213/117 126/221/126 119/202/119
f 119/202/119 235/222/235 230/207/230
f 230/207/230 232/223/232 231/206/231
f 112/205/112 121/218/121 107/200/107
f 231/206/231 232/223/232 112/205/112
f 221/209/221 233/224/233 238/210/238
f 121/218/121 232/223/232 227/219/227
f 165/225/165 166/226/166 234/220/234
f 229/227/229 128/228/128 226/229/226
f 118/230/118 233/231/233 221/232/221
f 237/233/237 234/234/234 166/235/166
f 227/236/227 122/237/122 124/238/124
f 126/239/126 234/234/234 237/240/237
f 228/241/228 227/236/227 124/238/124
f 124/238/124 123/242/123 228/243/228
f 126/239/126 235/244/235 119/245/119
f 126/239/126 237/240/237 243/246/243
f 127/247/127 241/248/241 124/238/124
f 126/239/126 243/246/243 129/249/129
f 123/242/123 132/250/132 229/227/229
f 235/244/235 135/251/135 236/252/236
f 235/244/235 236/252/236 232/253/232
f 118/230/118 128/228/128 233/231/233
f 233/231/233 125/254/125 238/255/238
f 122/237/122 236/252/236 127/247/127
f 236/252/236 131/256/131 127/247/127
f 238/257/238 125/254/125 245/258/245
f 116/259/116 245/258/245 163/260/163
f 238/257/238 245/258/245 116/259/116
f 124/238/124 122/237/122 127/247/127
f 128/228/128 133/261/133 10/262/10
f 135/251/135 244/263/244 236/252/236
f 236/252/236 244/263/244 131/256/131
f 167/264/167 237/265/237 166/266/166
f 237/265/237 167/264/167 147/267/147
f 131/256/131 140/268/140 127/247/127
f 132/250/132 241/248/241 240/269/240
f 132/250/132 240/269/240 130/270/130
f 134/271/134 143/272/143 239/273/239
f 128/228/128 130/270/130 142/274/142
f 129/249/129 243/246/243 136/275/136
f 134/271/134 129/249/129 141/276/141
f 129/249/129 136/275/136 141/276/141
f 130/270/130 240/269/240 144/277/144
f 143/272/143 242/278/242 135/251/135
f 242/278/242 145/279/145 244/263/244
f 244/263/244 145/279/145 246/280/246
f 244/263/244 246/280/246 247/281/247
f 244/263/244 247/281/247 140/268/140
f 241/248/241 247/281/247 138/282/138
f 141/276/141 136/275/136 248/283/248
f 142/274/142 144/277/144 139/284/139
f 141/276/141 248/283/248 143/272/143
f 248/283/248 137/285/137 143/272/143
f 143/272/143 137/285/137 242/278/242
f 250/286/250 153/287/153 248/283/248
f 249/288/249 253/1/253 144/277/144
f 139/284/139 157/4/157 251/289/251
f 146/290/146 252/291/252 246/280/246
f 147/292/147 255/293/255 150/294/150
f 146/290/146 254/295/254 252/291/252
f 167/296/167 255/297/255 147/292/147
f 245/298/245 148/299/148 163/300/163
f 255/293/255 161/17/161 150/294/150
f 150/294/150 161/17/161 136/275/136
f 154/301/154 169/2/169 249/288/249
f 253/1/253 157/4/157 139/284/139
f 151/302/151 168/303/168 149/304/149
f 251/289/251 159/305/159 10/262/10
f 151/302/151 149/304/149 146/290/146
f 153/287/153 171/25/171 155/6/155
f 153/287/153 250/286/250 171/25/171
f 149/304/149 156/5/156 11/11/11
f 149/304/149 11/11/11 254/295/254
f 148/306/148 177/307/177 163/308/163
f 158/21/158 173/23/173 169/2/169
f 17/3/17 169/2/169 173/23/173
f 156/5/156 168/303/168 155/6/155
f 159/305/159 157/4/157 13/8/13
f 160/13/160 159/305/159 13/8/13
f 11/11/11 156/5/156 174/9/174
f 14/15/14 172/16/172 158/21/158
f 161/17/161 255/293/255 170/18/170
f 171/25/171 161/17/161 182/19/182
f 158/21/158 20/20/20 173/23/173
f 22/24/22 17/3/17 173/23/173
f 12/7/12 155/6/155 27/26/27
f 13/8/13 17/3/17 25/28/25
f 174/9/174 16/29/16 18/30/18
f 175/10/175 18/30/18 1/37/1
f 175/10/175 1/37/1 172/16/172
f 176/14/176 160/13/160 2/35/2
f 20/20/20 172/16/172 21/38/21
f 171/25/171 182/19/182 15/27/15
f 13/8/13 25/28/25 33/34/33
f 12/7/12 19/39/19 16/29/16
f 182/19/182 178/48/178 15/27/15
f 25/28/25 22/24/22 35/41/35
f 27/26/27 32/40/32 19/39/19
f 16/29/16 19/39/19 28/36/28
f 19/39/19 179/49/179 28/36/28
f 176/14/176 2/35/2 180/45/180
f 177/309/177 176/14/176 180/45/180
f 167/310/167 185/311/185 170/312/170
f 180/45/180 44/313/44 177/309/177
f 21/38/21 1/37/1 24/42/24
f 170/18/170 185/61/185 182/19/182
f 28/36/28 179/49/179 23/43/23
f 24/42/24 23/43/23 30/60/30
f 30/60/30 23/43/23 34/56/34
f 29/44/29 24/42/24 30/60/30
f 29/44/29 30/60/30 38/57/38
f 181/47/181 29/44/29 38/57/38
f 32/40/32 36/53/36 179/49/179
f 33/34/33 25/28/25 31/50/31
f 179/49/179 37/55/37 23/43/23
f 178/48/178 188/70/188 36/53/36
f 178/48/178 187/62/187 188/70/188
f 36/53/36 188/70/188 179/49/179
f 31/50/31 35/41/35 39/52/39
f 179/49/179 188/70/188 37/55/37
f 2/35/2 33/34/33 40/54/40
f 44/314/44 180/45/180 183/46/183
f 38/57/38 34/56/34 41/58/41
f 181/47/181 38/57/38 184/59/184
f 181/47/181 184/59/184 45/51/45
f 184/59/184 41/58/41 43/64/43
f 185/61/185 186/66/186 187/62/187
f 45/51/45 184/59/184 193/68/193
f 31/50/31 39/52/39 40/54/40
f 42/63/42 188/70/188 190/76/190
f 183/46/183 2/35/2 40/54/40
f 34/56/34 37/55/37 42/63/42
f 51/74/51 39/52/39 194/73/194
f 188/70/188 189/72/189 190/76/190
f 40/54/40 39/52/39 51/74/51
f 183/46/183 40/54/40 3/75/3
f 43/64/43 190/76/190 49/79/49
f 193/68/193 43/64/43 48/80/48
f 186/66/186 192/81/192 195/71/195
f 191/69/191 45/51/45 50/85/50
f 50/85/50 193/68/193 48/80/48
f 194/73/194 50/85/50 56/87/56
f 189/72/189 195/71/195 46/92/46
f 190/76/190 189/72/189 46/92/46
f 49/79/49 46/92/46 47/91/47
f 49/79/49 190/76/190 46/92/46
f 49/79/49 47/91/47 52/103/52
f 199/93/199 194/73/194 53/99/53
f 54/88/54 46/92/46 198/89/198
f 51/74/51 194/73/194 199/93/199
f 183/46/183 3/75/3 4/94/4
f 47/91/47 54/88/54 52/103/52
f 162/78/162 183/46/183 64/111/64
f 48/80/48 49/79/49 52/103/52
f 192/81/192 167/96/167 55/86/55
f 46/92/46 195/71/195 55/86/55
f 46/92/46 55/86/55 198/89/198
f 162/315/162 64/111/64 163/316/163
f 48/80/48 52/103/52 197/98/197
f 55/86/55 196/105/196 61/123/61
f 197/98/197 201/112/201 57/100/57
f 198/89/198 55/86/55 61/123/61
f 198/89/198 61/123/61 65/113/65
f 56/87/56 57/100/57 53/99/53
f 53/99/53 202/106/202 199/93/199
f 199/93/199 60/107/60 6/110/6
f 199/93/199 6/110/6 4/94/4
f 183/46/183 4/94/4 64/111/64
f 54/88/54 200/90/200 59/109/59
f 57/100/57 66/114/66 62/101/62
f 66/114/66 205/131/205 202/106/202
f 54/88/54 59/109/59 5/102/5
f 5/102/5 59/109/59 208/117/208
f 166/317/166 61/318/61 196/319/196
f 166/317/166 203/320/203 61/318/61
f 208/117/208 58/116/58 69/119/69
f 208/117/208 69/119/69 70/321/70
f 59/109/59 58/116/58 208/117/208
f 64/111/64 217/121/217 163/134/163
f 65/113/65 61/123/61 164/125/164
f 201/112/201 204/122/204 66/114/66
f 66/114/66 213/129/213 205/131/205
f 66/114/66 72/126/72 213/129/213
f 58/116/58 212/115/212 206/118/206
f 202/106/202 205/131/205 207/130/207
f 60/107/60 207/130/207 68/120/68
f 202/106/202 207/130/207 60/107/60
f 69/119/69 206/118/206 67/128/67
f 70/321/70 69/119/69 73/132/73
f 70/321/70 73/132/73 210/139/210
f 204/122/204 70/321/70 211/144/211
f 208/117/208 70/321/70 204/122/204
f 70/321/70 210/139/210 211/144/211
f 68/120/68 89/147/89 217/121/217
f 223/322/223 203/323/203 166/324/166
f 211/144/211 210/139/210 75/145/75
f 204/122/204 211/144/211 216/143/216
f 72/126/72 216/143/216 213/129/213
f 67/128/67 215/127/215 74/149/74
f 209/138/209 73/132/73 76/158/76
f 215/127/215 212/115/212 219/154/219
f 216/143/216 218/151/218 82/150/82
f 213/129/213 82/150/82 214/146/214
f 76/158/76 67/128/67 74/149/74
f 73/132/73 67/128/67 76/158/76
f 209/138/209 76/158/76 77/155/77
f 78/141/78 209/138/209 77/155/77
f 78/141/78 77/155/77 94/153/94
f 77/155/77 76/158/76 90/156/90
f 217/121/217 91/152/91 81/140/81
f 176/14/176 177/307/177 148/299/148 152/12/152
f 75/145/75 87/163/87 218/151/218
f 83/148/83 215/127/215 9/164/9
f 84/167/84 74/149/74 83/148/83
f 82/150/82 86/165/86 214/146/214
f 214/146/214 86/165/86 80/170/80
f 214/146/214 80/170/80 89/147/89
f 218/151/218 99/168/99 86/165/86
f 86/165/86 8/179/8 80/170/80
f 79/166/79 84/167/84 95/180/95
f 7/157/7 85/172/85 93/325/93
f 94/153/94 7/157/7 93/325/93
f 94/153/94 93/325/93 87/163/87
f 93/325/93 98/194/98 87/163/87
f 93/325/93 85/172/85 96/175/96
f 98/194/98 93/325/93 96/175/96
f 87/163/87 98/194/98 97/178/97
f 80/170/80 8/179/8 220/182/220
f 86/165/86 99/168/99 8/179/8
f 79/166/79 95/180/95 102/169/102
f 80/170/80 220/182/220 103/171/103
f 102/169/102 104/184/104 222/174/222
f 95/180/95 114/198/114 111/181/111
f 102/169/102 111/181/111 104/184/104
f 103/171/103 221/209/221 91/152/91
f 103/171/103 120/183/120 221/209/221
f 91/152/91 221/209/221 101/173/101
f 96/175/96 222/174/222 106/185/106
f 105/187/105 223/177/223 166/188/166
f 109/195/109 96/175/96 110/186/110
f 219/154/219 117/213/117 9/164/9
f 97/178/97 98/194/98 109/195/109
f 8/179/8 97/178/97 100/197/100
f 84/167/84 115/199/115 114/198/114
f 109/195/109 110/186/110 108/201/108
f 219/154/219 105/196/105 117/213/117
f 100/197/100 109/195/109 108/201/108
f 224/203/224 100/197/100 108/201/108
f 224/203/224 226/217/226 220/182/220
f 220/182/220 226/217/226 120/183/120
f 104/184/104 225/204/225 106/185/106
f 110/186/110 106/185/106 107/200/107
f 225/204/225 112/205/112 107/200/107
f 108/201/108 107/200/107 121/218/121
f 117/213/117 165/212/165 234/220/234
f 224/203/224 108/201/108 113/214/113
f 224/203/224 228/215/228 226/217/226
f 113/214/113 108/201/108 227/219/227
f 228/215/228 113/214/113 227/219/227
f 228/215/228 123/326/123 229/216/229
f 120/183/120 226/217/226 118/208/118
f 112/205/112 232/223/232 121/218/121
f 226/229/226 128/228/128 118/230/118
f 227/236/227 232/253/232 122/237/122
f 124/238/124 241/248/241 123/242/123
f 230/327/230 235/244/235 232/253/232
f 132/250/132 123/242/123 241/248/241
f 126/239/126 134/271/134 235/244/235
f 134/271/134 126/239/126 129/249/129
f 235/244/235 134/271/134 239/273/239
f 128/228/128 229/227/229 132/250/132
f 128/228/128 132/250/132 130/270/130
f 235/244/235 239/273/239 135/251/135
f 232/253/232 236/252/236 122/237/122
f 233/231/233 128/228/128 10/262/10
f 239/273/239 143/272/143 135/251/135
f 125/254/125 233/231/233 10/262/10
f 241/248/241 127/247/127 140/268/140
f 247/281/247 241/248/241 140/268/140
f 142/274/142 130/270/130 144/277/144
f 134/271/134 141/276/141 143/272/143
f 133/261/133 128/228/128 142/274/142
f 135/251/135 242/278/242 244/263/244
f 125/254/125 10/262/10 152/12/152
f 245/328/245 125/254/125 152/12/152
f 131/256/131 244/263/244 140/268/140
f 243/246/243 237/265/237 147/329/147
f 136/275/136 243/246/243 150/294/150
f 133/261/133 142/274/142 251/289/251
f 145/279/145 146/290/146 246/280/246
f 243/246/243 147/329/147 150/294/150
f 247/281/247 246/280/246 138/282/138
f 240/269/240 241/248/241 138/282/138
f 144/277/144 240/269/240 138/282/138
f 242/278/242 137/285/137 145/279/145
f 138/282/138 249/288/249 144/277/144
f 136/275/136 250/286/250 248/283/248
f 144/277/144 253/1/253 139/284/139
f 137/285/137 248/283/248 153/287/153
f 142/274/142 139/284/139 251/289/251
f 137/285/137 151/302/151 145/279/145
f 133/261/133 251/289/251 10/262/10
f 145/279/145 151/302/151 146/290/146
f 245/328/245 152/12/152 148/299/148
f 246/280/246 252/291/252 138/282/138
f 152/12/152 10/262/10 160/13/160
f 146/290/146 149/304/149 254/295/254
f 252/291/252 254/295/254 154/301/154
f 138/282/138 252/291/252 154/301/154
f 136/275/136 161/17/161 250/286/250
f 250/286/250 161/17/161 171/25/171
f 138/282/138 154/301/154 249/288/249
f 137/285/137 153/287/153 168/303/168
f 157/4/157 159/305/159 251/289/251
f 151/302/151 137/285/137 168/303/168
f 160/13/160 10/262/10 159/305/159
f 168/303/168 153/287/153 155/6/155
f 149/304/149 168/303/168 156/5/156
f 254/295/254 11/11/11 14/15/14
f 170/330/170 255/293/255 167/331/167
f 254/295/254 14/15/14 154/301/154
f 154/301/154 14/15/14 158/21/158
f 154/301/154 158/21/158 169/2/169
f 253/1/253 249/288/249 169/2/169
