# Blender 4.3.2
# www.blender.org
o Sphere.001
v 0.496430 0.619638 -0.905197
v 0.776253 -0.226518 -1.251244
v 0.206565 -0.784755 -0.189079
v 0.507159 0.856655 -0.368606
v 0.000031 0.696534 0.000909
v 0.734892 -0.538298 0.072688
v -0.305846 0.618929 0.541099
v -0.101289 -0.552880 0.145176
v -0.208694 0.532040 0.299964
v -0.165278 -0.486239 0.289384
v -0.929197 -0.363540 0.444354
v -0.182802 -0.863796 0.044452
v -0.698825 -1.049571 -0.443076
v 0.082769 -0.809830 -0.894454
v 0.046456 -0.660855 -1.151033
v -0.009117 0.069125 -1.383456
v -0.019639 -0.236239 -1.385366
v 0.285672 0.682148 -0.556495
v 0.203381 0.660904 -0.890470
v 0.469080 -0.757498 -1.028433
v 0.104687 0.576854 -0.330075
v 0.306222 -0.686036 -1.174295
v 0.106188 -1.016634 -0.480339
v 0.310644 0.213042 -1.393042
v 0.108876 -0.910814 -0.190265
v 0.562330 0.328412 -1.264167
v 0.637351 -0.483545 -1.249292
v 0.249040 0.807503 -0.274876
v 0.526263 0.638193 -0.545578
v 0.233204 0.637314 -0.414819
v 0.733464 0.526311 -0.811841
v 0.857150 0.133586 -1.151871
v 0.990506 -0.385894 -0.580791
v 0.746132 -0.698523 -0.560941
v 0.921217 0.322007 -0.827541
v 0.964553 -0.211935 -1.026733
v 0.898172 -0.517604 -0.885348
v 0.816894 0.734141 -0.472448
v 0.481152 -0.804499 -0.451300
v 1.041380 0.485110 -0.502399
v 0.119289 -0.716316 -0.043629
v 0.759335 0.974446 -0.180911
v 1.271410 0.529743 -0.243835
v 1.199739 0.207009 -0.427997
v 0.832703 -0.539660 -0.371821
v 0.532496 -0.651898 -0.204622
v 0.476559 1.033004 0.054846
v 1.337392 -0.112597 -0.007946
v 1.100176 -0.370134 -0.082492
v 1.095549 0.743630 -0.279864
v 1.356415 0.228037 -0.203885
v 0.391521 0.968752 -0.109662
v 0.702238 1.048940 0.140655
v 1.203485 -0.307797 0.252645
v 1.406216 0.415035 0.038058
v 0.963754 0.973070 0.079101
v 0.451506 -0.518666 0.094727
v 1.242102 0.474376 0.620274
v 1.279589 0.118806 0.601196
v 1.152397 -0.198893 0.578478
v 1.034161 -0.401670 0.398023
v 1.254621 0.761829 0.085855
v 1.373894 0.468871 0.358637
v 0.161008 -0.462538 0.052005
v 0.083155 -0.620996 0.032292
v 1.394938 0.058910 0.328795
v 1.022820 0.374502 0.846594
v 1.095033 0.074637 0.780843
v 0.740390 -0.501955 0.429526
v 0.663332 -0.538936 0.280775
v 0.931312 0.881641 0.534889
v 0.470916 -0.633379 0.189766
v 0.688124 0.658610 0.843105
v 0.869494 -0.217894 0.760521
v 0.747839 -0.411717 0.601594
v 0.520924 -0.699815 0.290927
v 0.582375 -0.724315 0.495220
v 0.952757 0.707210 0.722069
v 0.467466 1.020062 0.310490
v 0.697109 -0.608872 0.468042
v 0.741135 0.351709 0.937957
v 0.572920 0.112446 0.939854
v 0.557606 -0.233148 0.795029
v 0.065216 0.797647 0.105357
v 0.614963 -0.456481 0.805509
v 0.690985 -0.570155 0.656865
v 0.842991 0.040008 0.898516
v 0.306622 0.033070 0.847883
v 0.313502 -0.742781 0.654169
v 0.246736 -0.736017 0.334721
v 0.335864 0.748449 0.709623
v 0.302869 -0.126232 0.772589
v 0.515738 -0.350243 0.848847
v 0.513149 -0.694191 0.724789
v 0.188176 0.542831 0.744082
v 0.115938 -0.652160 0.633105
v 0.344068 -0.300661 0.865747
v 0.197264 0.871411 0.400064
v 0.463552 0.446511 0.914390
v -0.009181 -0.181936 0.571015
v -0.015749 -0.469050 0.228156
v 0.129858 0.190731 0.757990
v -0.007407 -0.482300 0.109552
v 0.075277 0.803700 0.281373
v 0.163673 -0.523105 0.799087
v 0.117872 0.706841 0.549728
v -0.151182 0.321691 0.846108
v 0.006033 0.541460 0.533612
v -0.024647 0.343391 0.570383
v 0.020800 0.185798 0.633144
v -0.088390 -0.015972 0.833962
v -0.046768 -0.525402 0.127277
v -0.012111 -0.662040 0.083494
v -0.260781 -0.271068 0.845108
v -0.209104 -0.370543 0.624389
v -0.074942 -0.388692 0.295450
v -0.145183 0.455651 0.691330
v -0.737783 0.237566 1.076930
v -0.458404 -0.376244 0.836997
v -0.348769 0.453357 0.919366
v -0.512651 0.312840 1.065100
v -0.956468 0.140104 0.987859
v -0.727872 0.016510 1.092566
v -0.579467 -0.439553 0.759560
v -0.183323 -0.365404 0.280572
v -0.562216 0.571673 0.853214
v -0.788906 0.401979 0.986023
v -0.725909 -0.457927 0.611523
v -0.559307 -0.489785 0.444136
v -0.855052 0.519280 0.825244
v -1.039953 0.352760 0.801070
v -1.143525 0.089907 0.733063
v -0.984887 -0.093289 0.925965
v -0.661105 0.641525 0.356962
v -0.896687 0.539085 0.345825
v -1.159441 0.222600 0.516280
v -0.269772 0.684225 0.230770
v -0.364961 -0.527919 0.165145
v -0.920484 0.571940 0.579516
v -0.274934 -0.750342 0.119763
v -0.471823 -0.504665 0.149529
v -1.111612 0.446342 0.246949
v -0.784938 -0.392219 0.272688
v -0.356338 0.776760 0.188376
v -1.272665 0.471039 -0.047351
v -1.078220 -0.098641 0.295904
v -0.976983 -0.376230 0.175337
v -0.941379 0.714243 0.168773
v -0.786257 0.933351 -0.183004
v -1.099862 0.751904 -0.154127
v -1.201393 0.649466 -0.271944
v -0.374671 -0.968737 -0.027123
v -0.505495 -0.832608 0.039659
v -1.150082 -0.307149 0.054734
v -0.914483 -0.544981 -0.049056
v -0.912370 0.823981 0.011384
v -1.168435 0.612736 -0.560668
v -0.747841 -0.903241 -0.216756
v -1.049022 -0.510023 -0.266764
v -0.872595 -0.608684 -0.231250
v -1.339142 0.358906 -0.398046
v -1.327319 0.046437 -0.554979
v -1.362039 0.017971 -0.237241
v -1.065628 0.394342 -0.883829
v -1.121034 0.172586 -0.875415
v -1.162172 -0.174279 -0.739333
v -1.023047 -0.427492 -0.638189
v -0.197965 -1.106030 -0.226622
v -0.319461 0.891472 -0.062386
v -0.880254 -0.768736 -0.389402
v -0.088450 0.763364 -0.096258
v -0.714552 -0.364946 -0.914221
v -0.918692 -0.520936 -0.593477
v -0.936751 -0.268097 -0.882967
v -0.767931 0.861159 -0.644666
v -0.974212 0.818604 -0.520623
v -0.441471 -1.104409 -0.226027
v -0.883199 0.229195 -1.035694
v -0.621030 -0.596898 -1.028520
v -0.999475 -0.062583 -0.950371
v -0.818565 -0.613312 -0.832070
v -0.829976 -0.871410 -0.647977
v -0.580250 0.181621 -1.113887
v -0.437284 -0.873577 -1.008937
v -0.362584 -1.075432 -0.841341
v -0.669855 -0.882217 -0.885694
v -0.567812 0.646432 -0.945460
v -0.296986 -0.268208 -1.171408
v -0.393949 -0.059817 -1.065720
v -0.222375 -1.158235 -0.629623
v -0.358294 0.544683 -0.986634
v -0.063968 -1.115282 -0.396141
v -0.061392 -1.013685 -0.836308
v 0.088974 0.658655 -0.769905
v -0.140521 0.535604 -0.882126
v -0.096254 0.451586 -1.089570
v 0.091332 0.427662 -1.236914
v -0.005653 -0.528021 -1.263812
v -0.010576 -1.082827 -0.610786
v 0.016698 0.697025 -0.230963
v 0.058688 -0.840649 -0.057422
v 0.115541 0.815460 -0.044901
v 0.007253 -0.830384 -0.004688
v 0.106733 -0.659524 -0.000971
v -0.018006 0.682644 0.066846
v -0.039878 -0.758638 0.056051
v -0.013019 0.641048 0.003365
v -0.002266 0.655505 -0.050627
v -0.102937 -0.651826 -1.054770
v -0.189398 0.218869 -1.218777
v -0.256214 -0.007846 -1.236334
v 0.039722 0.636242 -0.539931
v 0.290248 -0.448654 -1.363541
v 0.445978 -0.298029 -1.400759
v 0.210599 -0.867422 -0.614827
v 0.348710 0.517038 -1.160450
v 0.296113 -0.114291 -1.456091
v 0.256898 -0.820819 -0.418140
v 0.026057 0.695121 -0.080863
v 0.600182 0.068408 -1.367607
v 0.305374 -0.824194 -0.931143
v 0.705108 -0.678447 -0.954690
v 0.551082 -0.816798 -0.709495
v 0.670752 0.444393 -1.079709
v 0.086048 0.769312 -0.090894
v 0.750969 0.517954 -0.598093
v 0.309621 -0.707182 -0.217686
v 0.910523 0.344293 -0.597492
v 1.043091 -0.200256 -0.676695
v 1.042640 0.034854 -0.775734
v 1.026714 0.051190 -0.528176
v 0.231086 -0.714539 -0.094799
v 1.177440 -0.172900 -0.275605
v 0.980135 -0.238973 -0.384969
v 0.304354 -0.566387 -0.077562
v 0.787565 -0.448459 -0.219790
v 1.029991 0.875109 -0.156702
v 0.588059 -0.502437 -0.099474
v 1.418371 0.160039 0.043589
v 0.266907 0.961273 0.154210
v 0.963313 -0.482595 0.120790
v 1.336321 0.628062 0.148812
v 0.247919 -0.418313 0.008940
v 0.207973 -0.556900 0.011498
v 0.902632 0.989427 0.327179
v 0.249892 -0.605682 0.131056
v 0.149749 0.862019 0.003987
v 1.176655 0.746736 0.458034
v 0.065915 -0.479104 0.117473
v 0.117562 0.846174 0.076634
v 0.621614 0.930459 0.587271
v 0.381394 0.907581 0.529314
v 0.426173 -0.777808 0.510952
v 0.078770 -0.485355 0.061422
v 0.043440 -0.614321 0.067328
v 0.364708 -0.590659 0.840474
v 0.210395 -0.746038 0.485820
v 0.222254 0.335357 0.833643
v 0.050850 -0.611306 0.309334
v 0.013389 0.732386 0.142352
v 0.036584 -0.052528 0.564428
v 0.141582 -0.261464 0.784400
v -0.051901 0.583110 0.336863
v 0.007983 -0.314063 0.659298
v -0.052376 -0.242982 0.526217
v -0.046329 -0.481312 0.495977
v -0.245804 0.172364 0.988381
v -0.085715 -0.295570 0.394105
v -0.066971 0.442753 0.449775
v -0.086458 -0.530690 0.250154
v -0.364088 -0.031816 1.055371
v -0.500094 -0.157215 1.048243
v -0.106637 0.448883 0.265803
v -0.045632 0.627400 0.064686
v -0.752706 -0.284176 0.935529
v -0.316701 -0.447339 0.480511
v -0.480227 0.647465 0.346163
v -0.613035 0.665836 0.633546
v -0.338839 -0.504756 0.254290
v -0.237580 -0.480024 0.185098
v -0.177254 -0.552749 0.163326
v -0.099472 -0.752726 0.083869
v -1.001669 -0.288387 0.679777
v -1.110281 -0.144429 0.523885
v -0.457519 -0.444700 0.268806
v -0.445543 -0.497507 0.236206
v -1.081199 0.318902 0.323062
v -0.062053 0.676300 0.037653
v -0.750836 -0.518910 0.133069
v -0.597103 0.873995 0.095543
v -0.672116 -0.586959 0.021418
v -0.127280 0.759770 -0.007728
v -0.716849 -0.780860 -0.077712
v -0.563951 -0.981023 -0.118741
v -1.333083 0.257239 -0.032387
v -1.259214 -0.033066 0.107968
v -1.230846 -0.296840 -0.162241
v -1.244609 -0.277012 -0.439494
v -0.514858 0.968602 -0.217949
v -0.182256 -0.976118 -0.043989
v -1.260088 0.383461 -0.629373
v -0.889003 0.627300 -0.870040
v -0.487946 -1.157921 -0.517722
v -0.695386 0.418574 -1.048910
v 0.024215 -0.991264 -0.189102
v -0.227130 0.886875 -0.214360
v -0.549103 0.964242 -0.423903
v -0.568532 0.866881 -0.686317
v -0.572972 -1.045350 -0.793847
v -0.309410 0.901834 -0.506135
v -0.285006 -1.176545 -0.428747
v -0.601680 -0.072525 -1.081705
v -0.063225 0.762632 -0.148888
v -0.410359 -0.241823 -1.001850
v -0.279193 -0.443103 -1.095938
v -0.239215 0.754595 -0.747069
v -0.307839 0.243837 -1.065549
v -0.088177 0.796798 -0.440255
v -0.250445 -0.775664 -1.071091
vn 0.5016 -0.8375 -0.2168
vn 0.7272 -0.6439 -0.2379
vn 0.6736 -0.7387 0.0218
vn -0.4782 0.7096 -0.5175
vn -0.0832 0.9515 -0.2962
vn -0.2303 0.6559 -0.7188
vn -0.4495 0.8294 -0.3318
vn -0.2835 0.9539 -0.0988
vn 0.4018 -0.9036 0.1487
vn 0.5221 -0.7369 0.4294
vn -0.3475 0.2129 -0.9132
vn 0.0344 0.3887 -0.9207
vn 0.0259 -0.0260 -0.9993
vn -0.3755 -0.1894 -0.9073
vn 0.0139 -0.4668 -0.8843
vn -0.3554 -0.5330 -0.7679
vn 0.2573 -0.2490 -0.9337
vn 0.7777 0.6218 0.0925
vn 0.6912 0.6676 -0.2767
vn 0.6036 0.7795 -0.1672
vn 0.4719 -0.5034 -0.7238
vn -0.2527 0.9578 0.1369
vn -0.1048 0.9474 0.3024
vn 0.0333 0.9908 0.1314
vn 0.0299 -0.9492 -0.3132
vn 0.0838 -0.9965 0.0067
vn -0.1539 -0.9188 -0.3635
vn 0.0973 0.7760 -0.6231
vn 0.2785 0.9181 -0.2819
vn -0.8023 0.4650 -0.3743
vn -0.9009 0.3270 -0.2853
vn -0.8505 0.4878 -0.1966
vn 0.5220 0.6780 -0.5174
vn 0.7487 0.2825 -0.5997
vn 0.3680 0.5360 -0.7598
vn 0.7424 -0.6500 0.1623
vn 0.6728 -0.6380 0.3744
vn 0.4696 -0.5129 0.7186
vn 0.6393 -0.1726 -0.7493
vn -0.6810 0.5226 -0.5130
vn -0.5063 0.6824 -0.5272
vn -0.4888 0.5703 -0.6602
vn 0.2720 -0.8456 -0.4594
vn 0.3510 -0.9349 -0.0536
vn 0.2830 -0.9108 0.3007
vn -0.1574 0.7524 -0.6396
vn 0.5567 -0.7510 -0.3549
vn 0.6172 -0.7734 0.1448
vn 0.2871 0.9579 0.0041
vn 0.6112 0.7912 -0.0191
vn 0.5844 0.7913 -0.1796
vn 0.6450 -0.6531 0.3968
vn 0.6795 -0.6432 0.3530
vn 0.8309 0.5145 -0.2117
vn 0.8786 -0.1675 -0.4472
vn 0.9727 0.1746 -0.1528
vn -0.6961 0.6205 -0.3612
vn 0.8049 -0.5302 -0.2666
vn 0.5263 -0.6151 0.5870
vn 0.5258 -0.4953 0.6915
vn 0.5975 -0.4791 0.6430
vn 0.9855 -0.1675 -0.0276
vn 0.9090 -0.4057 0.0955
vn -0.1135 0.5818 -0.8054
vn 0.2405 0.6144 -0.7514
vn 0.2250 0.4154 -0.8814
vn 0.1167 -0.9374 0.3282
vn 0.1506 -0.8022 0.5778
vn 0.5287 0.3076 -0.7911
vn 0.5869 0.6031 -0.5403
vn 0.3434 -0.7311 0.5895
vn 0.1655 -0.5577 0.8134
vn 0.4406 0.1601 -0.8833
vn 0.7101 -0.0475 -0.7025
vn 0.5930 -0.2207 -0.7744
vn 0.9835 0.1570 0.0894
vn -0.6554 0.7138 -0.2470
vn -0.5955 0.7756 -0.2092
vn 0.9229 -0.2505 0.2923
vn 0.7078 -0.5922 0.3852
vn 0.4683 -0.4215 0.7766
vn 0.6918 -0.4923 -0.5283
vn 0.5019 -0.6245 -0.5984
vn -0.3055 0.8899 -0.3387
vn 0.4951 0.7828 -0.3769
vn 0.1541 0.8980 -0.4122
vn 0.8014 0.3579 -0.4792
vn 0.6737 -0.3396 0.6563
vn 0.4842 -0.2960 0.8234
vn 0.0943 0.9955 -0.0048
vn 0.4378 0.8952 -0.0833
vn 0.1214 -0.9876 -0.0997
vn -0.2013 -0.9596 -0.1968
vn -0.0576 -0.9709 -0.2325
vn 0.7577 0.6479 -0.0785
vn 0.3758 -0.6077 0.6996
vn 0.1689 -0.4484 0.8777
vn 0.9700 0.2078 -0.1264
vn 0.5742 -0.1506 0.8047
vn 0.9902 -0.0986 -0.0992
vn 0.8780 -0.4414 -0.1851
vn 0.8995 -0.0380 -0.4353
vn 0.5712 -0.7710 -0.2815
vn -0.1803 0.9747 -0.1318
vn 0.3987 -0.9165 -0.0325
vn 0.2940 -0.8920 -0.3435
vn 0.9467 -0.2217 0.2339
vn 0.7358 -0.6659 0.1232
vn 0.3489 0.9103 0.2227
vn 0.2479 -0.5667 -0.7858
vn -0.1530 -0.7151 -0.6821
vn -0.0248 -0.5460 -0.8374
vn 0.8911 0.4538 0.0063
vn 0.9330 0.2446 0.2641
vn 0.6834 -0.5602 -0.4681
vn 0.3800 -0.8033 -0.4586
vn 0.3037 -0.6697 -0.6777
vn 0.6834 0.6272 0.3736
vn 0.7676 0.2662 0.5831
vn 0.3487 -0.1854 0.9187
vn 0.4889 -0.3142 0.8138
vn 0.8194 -0.1342 0.5573
vn 0.6495 -0.5466 0.5286
vn 0.4848 -0.8127 0.3232
vn -0.1879 0.9584 0.2148
vn 0.3083 -0.9146 0.2617
vn 0.5279 -0.2115 0.8225
vn 0.3064 -0.7554 0.5793
vn 0.9147 -0.3931 -0.0937
vn 0.8183 -0.5686 -0.0845
vn 0.0090 0.8381 0.5454
vn 0.5339 -0.8455 -0.0043
vn 0.3797 0.7794 0.4985
vn 0.4105 0.5645 0.7161
vn 0.1665 -0.2019 0.9651
vn 0.4921 0.1649 0.8548
vn 0.5847 -0.2132 0.7827
vn 0.1152 -0.9932 0.0153
vn 0.0760 0.5171 0.8526
vn 0.2052 -0.9664 0.1548
vn 0.2815 -0.9444 0.1699
vn 0.0870 -0.9879 0.1287
vn -0.4980 -0.6547 -0.5686
vn -0.2538 -0.5836 -0.7714
vn 0.2599 -0.2612 0.9296
vn 0.3134 -0.5740 0.7565
vn -0.6647 0.7428 -0.0800
vn -0.7312 0.6628 0.1613
vn -0.4701 0.8826 0.0075
vn 0.9221 -0.1192 0.3682
vn 0.8018 -0.4499 0.3933
vn -0.5416 0.7774 0.3199
vn 0.4384 0.3357 0.8337
vn 0.5925 -0.1120 0.7977
vn -0.3306 0.8191 0.4688
vn 0.3453 -0.7489 0.5656
vn 0.1468 0.1326 0.9802
vn -0.0942 -0.1749 0.9801
vn -0.7672 0.6397 -0.0472
vn -0.0154 -0.4812 0.8765
vn -0.3565 0.6122 0.7058
vn -0.2185 0.2400 0.9459
vn -0.2261 -0.9114 -0.3440
vn -0.6722 -0.6968 -0.2503
vn -0.5251 0.1008 0.8451
vn -0.4233 -0.2556 0.8692
vn -0.4416 -0.3749 0.8152
vn -0.0655 0.1942 0.9788
vn 0.2929 0.1016 0.9507
vn -0.5725 -0.1460 0.8068
vn 0.0829 -0.2245 0.9709
vn -0.1901 -0.8828 0.4296
vn -0.2373 -0.7229 0.6489
vn -0.5490 -0.7672 0.3318
vn -0.4084 -0.9124 0.0287
vn -0.5801 0.3522 0.7345
vn -0.6695 -0.1049 0.7353
vn -0.6673 -0.2904 0.6858
vn 0.3162 -0.2923 0.9025
vn -0.2066 0.4972 0.8427
vn -0.5184 0.2548 0.8163
vn -0.7625 0.1664 0.6252
vn -0.7485 -0.0874 0.6573
vn 0.0311 -0.9931 0.1131
vn 0.0309 -0.9929 0.1144
vn -0.6175 0.4093 0.6717
vn -0.8634 -0.1739 0.4736
vn -0.8146 0.0303 0.5793
vn -0.9027 -0.3734 0.2140
vn -0.7939 0.3590 0.4908
vn -0.6676 0.5656 0.4841
vn -0.9184 0.0382 0.3939
vn -0.9790 -0.1157 0.1676
vn -0.8815 0.4273 0.2008
vn -0.8864 0.2872 0.3629
vn -0.9204 -0.3880 -0.0479
vn -0.7943 -0.5427 -0.2731
vn 0.8598 0.1730 0.4804
vn 0.6620 0.6544 0.3654
vn 0.7127 0.3700 0.5960
vn 0.7021 -0.6914 0.1703
vn 0.6559 -0.7417 0.1403
vn 0.7577 -0.6406 0.1249
vn 0.7724 -0.1789 0.6094
vn 0.3838 -0.3780 0.8425
vn 0.8814 -0.1867 0.4340
vn 0.7685 -0.4828 0.4198
vn -0.8560 0.5150 -0.0445
vn 0.5309 -0.7988 0.2830
vn 0.6888 -0.6994 0.1908
vn -0.7834 0.2717 0.5589
vn 0.5653 0.1434 0.8123
vn 0.3924 0.6381 0.6625
vn 0.1480 0.3572 0.9222
vn 0.3802 -0.1885 0.9055
vn 0.1244 -0.4586 0.8799
vn 0.5263 -0.5992 0.6032
vn -0.9369 0.3304 0.1143
vn 0.4011 0.9083 0.1186
vn 0.3908 -0.2995 0.8704
vn 0.3857 -0.4086 0.8272
vn 0.3910 -0.2917 0.8729
vn -0.1245 0.0537 0.9908
vn 0.2144 -0.7975 0.5639
vn -0.0299 -0.9145 0.4034
vn 0.6571 0.7509 0.0660
vn 0.5268 0.8427 -0.1113
vn 0.0597 0.8273 0.5586
vn -0.3258 0.5472 0.7710
vn 0.2096 -0.9249 0.3173
vn -0.4156 -0.7875 0.4550
vn -0.3078 -0.8758 0.3717
vn 0.4621 -0.1896 0.8663
vn 0.2800 -0.9465 0.1605
vn -0.1994 -0.1601 0.9667
vn -0.2231 0.2296 0.9474
vn -0.6290 0.0941 0.7717
vn -0.9266 0.2040 -0.3158
vn -0.9104 0.4134 -0.0172
vn 0.2616 -0.4316 0.8633
vn -0.6656 -0.3576 0.6551
vn -0.2878 -0.6757 0.6787
vn -0.0422 -0.9962 -0.0757
vn 0.3324 -0.9422 0.0429
vn -0.3016 -0.9367 0.1777
vn 0.1559 0.9843 -0.0830
vn -0.8213 -0.0815 0.5646
vn 0.5202 -0.6784 0.5188
vn 0.2369 -0.9228 0.3039
vn 0.4732 -0.7773 0.4146
vn -0.0564 0.9800 0.1906
vn -0.4360 0.7575 0.4859
vn -0.0910 -0.4002 0.9119
vn -0.0224 -0.2764 0.9608
vn 0.0168 -0.2034 0.9790
vn 0.0126 -0.9793 0.2022
vn -0.5846 0.8088 0.0649
vn -0.7790 0.4551 0.4313
vn -0.9452 -0.0391 0.3240
vn 0.5981 0.5321 0.5993
vn 0.6883 0.6295 0.3605
vn 0.6322 0.6214 0.4628
vn -0.6894 -0.6688 0.2782
vn -0.5997 -0.7832 -0.1640
vn 0.1254 0.7054 0.6977
vn 0.4539 0.5950 0.6633
vn 0.2759 0.7626 0.5850
vn 0.5469 0.5184 0.6574
vn 0.1827 -0.5138 0.8382
vn -0.0046 -0.3820 0.9241
vn -0.2752 -0.9452 -0.1757
vn 0.1022 -0.9686 -0.2268
vn -0.1438 0.7338 0.6640
vn -0.2011 0.9757 -0.0866
vn -0.1793 -0.9615 0.2082
vn -0.5887 0.7901 -0.1710
vn -0.7999 0.5941 -0.0850
vn 0.0999 -0.2779 0.9554
vn -0.1303 -0.2694 0.9542
vn -0.0319 -0.3108 0.9499
vn -0.9733 0.2215 -0.0600
vn -0.9198 -0.3919 -0.0223
vn -0.0473 0.8745 0.4828
vn -0.4747 0.6840 0.5538
vn -0.3021 -0.2748 0.9128
vn -0.3417 -0.4466 0.8269
vn -0.9297 0.0173 -0.3679
vn -0.8969 -0.3426 -0.2798
vn -0.7469 0.1570 0.6461
vn -0.8572 -0.1934 0.4772
vn -0.6814 -0.3069 0.6644
vn -0.4983 -0.6354 0.5899
vn -0.2906 -0.6923 0.6605
vn -0.2103 -0.8333 0.5112
vn -0.0303 -0.8480 0.5291
vn 0.0176 -0.8840 0.4672
vn 0.5428 0.7462 0.3854
vn 0.3118 0.8983 0.3095
vn -0.4143 -0.8523 0.3194
vn -0.7179 -0.5636 0.4086
vn -0.1722 -0.8904 0.4213
vn -0.4240 0.8287 0.3654
vn -0.6557 0.7359 0.1687
vn -0.7027 0.3686 0.6085
vn -0.8602 0.4198 0.2895
vn -0.9409 0.1179 0.3174
vn -0.6711 -0.3539 0.6515
vn -0.4341 -0.6978 0.5698
vn -0.1040 -0.6947 0.7117
vn 0.1851 -0.7219 0.6668
vn -0.9851 -0.1623 0.0561
vn -0.8391 -0.5121 -0.1835
vn -0.8366 -0.5276 0.1477
vn -0.6185 -0.7857 0.0126
vn 0.0736 0.9910 0.1115
vn -0.2964 0.9494 0.1036
vn -0.5762 -0.2291 0.7846
vn -0.8993 -0.2135 0.3816
vn -0.7134 -0.5630 0.4172
vn -0.4290 -0.8975 0.1019
vn -0.8052 0.5928 -0.0154
vn -0.5163 0.8132 -0.2686
vn -0.7450 0.5683 -0.3493
vn -0.9599 0.2546 -0.1173
vn -0.8562 0.2766 -0.4363
vn -0.2223 -0.8820 0.4154
vn -0.6270 -0.7746 0.0829
vn -0.9357 -0.1132 -0.3341
vn -0.4191 0.5832 -0.6958
vn -0.6241 0.3206 -0.7125
vn 0.1704 -0.8868 0.4297
vn -0.7224 0.0137 -0.6913
vn -0.7526 -0.3749 -0.5414
vn -0.5162 -0.2395 -0.8223
vn 0.4329 0.8970 0.0893
vn -0.5815 -0.6903 -0.4306
vn -0.5030 -0.7835 -0.3650
vn -0.9338 -0.3291 0.1402
vn -0.9734 -0.0825 -0.2137
vn -0.8432 -0.4780 -0.2460
vn -0.0126 0.9853 -0.1706
vn -0.2736 0.8601 -0.4307
vn 0.3157 0.9132 -0.2578
vn 0.0091 0.8571 -0.5150
vn -0.2878 -0.9564 -0.0503
vn 0.0486 -0.9925 0.1126
vn -0.3922 0.0771 -0.9166
vn -0.4445 -0.5201 -0.7293
vn -0.1748 0.3380 -0.9247
vn -0.0451 0.0477 -0.9978
vn -0.1222 -0.2657 -0.9563
vn -0.2802 -0.5235 -0.8046
vn 0.5960 0.7511 0.2841
vn 0.6429 0.7440 0.1821
vn -0.8378 -0.0696 -0.5415
vn -0.5938 -0.4737 -0.6504
vn -0.0266 0.6231 -0.7817
vn -0.4633 -0.0403 -0.8853
vn 0.0988 -0.3447 -0.9335
vn -0.1975 -0.4834 -0.8528
vn 0.3954 0.7359 -0.5497
vn -0.0450 -0.8181 -0.5734
vn -0.4271 -0.7803 -0.4569
vn 0.2356 0.4647 -0.8535
vn 0.1450 -0.9611 -0.2351
vn 0.1174 -0.2001 -0.9727
vn 0.0049 -0.4221 -0.9066
vn -0.6167 0.2065 -0.7596
vn -0.3228 0.2599 -0.9101
vn -0.1570 0.0600 -0.9858
vn -0.8053 0.0346 -0.5919
vn -0.7077 0.4327 -0.5584
vn -0.6765 0.0946 -0.7303
vn 0.4053 -0.7091 -0.5770
vn 0.4755 0.5283 -0.7034
vn 0.1993 0.1769 -0.9638
vn -0.5778 0.4029 -0.7098
vn -0.7092 -0.2206 -0.6697
vn -0.6380 -0.4136 -0.6495
vn -0.2533 -0.7655 -0.5915
vn -0.4448 -0.7104 -0.5455
vn 0.2962 -0.2306 -0.9269
vn 0.0412 -0.7525 -0.6573
vn 0.5292 -0.5361 -0.6577
vn 0.7206 0.6348 0.2787
vn 0.8067 0.5910 -0.0004
vn -0.2168 0.9197 0.3274
vn 0.4216 0.1730 -0.8901
vn 0.8466 0.5320 -0.0127
vn 0.6369 -0.5629 0.5268
vn -0.3178 -0.8999 -0.2986
vn 0.1630 -0.9852 0.0530
vn 0.5206 -0.1038 0.8474
vn 0.4824 -0.1168 0.8681
vn -0.3603 -0.6834 0.6350
vn -0.6154 0.7759 -0.1386
vn -0.7918 -0.3505 0.5002
vn 0.6007 -0.7970 0.0624
vn 0.8010 0.4910 0.3426
vn 0.6069 0.7878 -0.1046
vn 0.4546 -0.8885 -0.0621
vn -0.2438 -0.7184 0.6515
vn 0.3879 -0.1188 0.9140
vn 0.3101 -0.2984 0.9026
vn 0.6007 0.5122 0.6139
vn -0.1759 -0.5457 0.8193
vn -0.6404 -0.6525 0.4051
vn -0.8753 -0.3818 0.2969
vn -0.4380 0.5531 0.7087
vn -0.2310 -0.9614 0.1495
vn -0.6511 -0.6153 -0.4444
vn -0.8301 -0.1838 -0.5264
vt 0.752964 0.164552
vt 0.697207 0.209534
vt 0.721538 0.145054
vt 0.763782 0.622740
vt 0.707817 0.687276
vt 0.737412 0.601039
vt 0.774817 0.668290
vt 0.731001 0.719738
vt 0.777196 0.110206
vt 0.735033 0.065480
vt 0.749962 0.514926
vt 0.715766 0.546111
vt 0.717544 0.474082
vt 0.751488 0.447539
vt 0.717005 0.400390
vt 0.749998 0.382648
vt 0.698084 0.436653
vt 0.750065 0.902972
vt 0.739039 0.771817
vt 0.784503 0.838119
vt 0.675613 0.392646
vt 0.668901 0.791813
vt 0.685175 0.751593
vt 0.698248 0.277850
vt 0.738079 0.269289
vt 0.700580 0.627917
vt 0.672204 0.670043
vt 0.698188 0.956872
vt 0.705078 0.992188
vt 0.703125 1.000000
vt 0.661951 0.605081
vt 0.650493 0.530468
vt 0.683869 0.572174
vt 0.667327 0.173028
vt 0.664386 0.072532
vt 0.679436 0.030245
vt 0.672284 0.015363
vt 0.662053 0.453589
vt 0.701837 0.827688
vt 0.683310 0.949463
vt 0.626061 0.859610
vt 0.678065 0.317276
vt 0.645997 0.268676
vt 0.621004 0.222066
vt 0.594806 0.799904
vt 0.649015 0.336181
vt 0.603713 0.299698
vt 0.627541 0.729342
vt 0.608073 0.661621
vt 0.634729 0.638457
vt 0.623859 0.109001
vt 0.606145 0.154936
vt 0.618704 0.576999
vt 0.631300 0.453597
vt 0.603329 0.508992
vt 0.637149 0.983388
vt 0.629170 0.942625
vt 0.623362 0.378599
vt 0.567380 0.109593
vt 0.551574 0.060481
vt 0.639568 0.042667
vt 0.610534 0.025669
vt 0.591725 0.449307
vt 0.586257 0.394913
vt 0.579640 0.710700
vt 0.570036 0.625164
vt 0.538755 0.681916
vt 0.561814 0.230796
vt 0.538729 0.161689
vt 0.592282 0.596813
vt 0.555687 0.550645
vt 0.575850 0.513902
vt 0.581499 0.037486
vt 0.579247 0.979304
vt 0.572969 0.961015
vt 0.491593 0.941505
vt 0.559703 0.428244
vt 0.567660 0.329726
vt 0.507457 0.054950
vt 0.552623 0.027428
vt 0.537109 0.039062
vt 0.537765 0.460060
vt 0.540564 0.872272
vt 0.522439 0.726388
vt 0.534457 0.783340
vt 0.529655 0.622609
vt 0.493212 0.108869
vt 0.469991 0.807732
vt 0.486484 0.749741
vt 0.483953 0.304260
vt 0.465629 0.239834
vt 0.526573 0.279760
vt 0.490989 0.679761
vt 0.496724 0.171466
vt 0.494943 0.592203
vt 0.494917 0.536337
vt 0.500402 0.475199
vt 0.524093 0.553008
vt 0.510216 0.397542
vt 0.478366 0.858342
vt 0.480494 0.357390
vt 0.538567 0.350850
vt 0.464121 0.513415
vt 0.467150 0.424199
vt 0.445812 0.755541
vt 0.418521 0.154312
vt 0.482388 0.638851
vt 0.458172 0.600601
vt 0.435722 0.298214
vt 0.411743 0.232252
vt 0.437866 0.219991
vt 0.441167 0.668174
vt 0.425682 0.604015
vt 0.448256 0.112143
vt 0.457098 0.047720
vt 0.455078 0.007812
vt 0.453125 0.000000
vt 0.430297 0.527399
vt 0.424311 0.455937
vt 0.440036 0.390235
vt 0.406400 0.835419
vt 0.418291 0.341964
vt 0.442042 0.035961
vt 0.413618 0.033346
vt 0.421875 0.000000
vt 0.390926 0.381968
vt 0.403798 0.303227
vt 0.380886 0.757749
vt 0.386190 0.259139
vt 0.416624 0.718289
vt 0.398504 0.670106
vt 0.387615 0.069327
vt 0.391442 0.589292
vt 0.401850 0.517658
vt 0.358946 0.227358
vt 0.361389 0.673050
vt 0.334844 0.094725
vt 0.371889 0.511966
vt 0.386454 0.440263
vt 0.417709 0.946404
vt 0.299980 0.895178
vt 0.417253 0.897844
vt 0.377302 0.329639
vt 0.326447 0.846483
vt 0.349057 0.423704
vt 0.354558 0.365188
vt 0.350286 0.801014
vt 0.348730 0.290789
vt 0.357950 0.590822
vt 0.337905 0.532329
vt 0.363771 0.991114
vt 0.345311 0.938981
vt 0.371094 0.953125
vt 0.322287 0.739773
vt 0.326635 0.634015
vt 0.351291 0.170780
vt 0.285942 0.155709
vt 0.293706 0.617473
vt 0.305936 0.512643
vt 0.310424 0.448017
vt 0.310882 0.397870
vt 0.336828 0.392084
vt 0.284018 0.318434
vt 0.316950 0.317461
vt 0.322898 0.248847
vt 0.284729 0.246467
vt 0.317622 0.202337
vt 0.290977 0.696136
vt 0.278110 0.575581
vt 0.261533 0.476870
vt 0.297809 0.986436
vt 0.307741 0.945287
vt 0.297700 0.025519
vt 0.293555 0.013282
vt 0.296875 0.000000
vt 0.281248 0.397205
vt 0.242310 0.671494
vt 0.254946 0.591903
vt 0.240400 0.145573
vt 0.244241 0.076505
vt 0.286812 0.935759
vt 0.212262 0.948314
vt 0.252429 0.358377
vt 0.241174 0.262462
vt 0.254123 0.751001
vt 0.286356 0.783272
vt 0.233677 0.363105
vt 0.213297 0.298801
vt 0.228066 0.831524
vt 0.220054 0.747576
vt 0.209331 0.216410
vt 0.214633 0.676719
vt 0.219617 0.615093
vt 0.189338 0.086728
vt 0.231145 0.495499
vt 0.206713 0.043993
vt 0.232422 0.007812
vt 0.234375 0.000000
vt 0.247859 0.422132
vt 0.198368 0.346544
vt 0.209176 0.553652
vt 0.190022 0.633941
vt 0.177797 0.581448
vt 0.195709 0.495543
vt 0.175553 0.455304
vt 0.201489 0.408333
vt 0.188703 0.819204
vt 0.161163 0.744765
vt 0.163547 0.190265
vt 0.160799 0.240885
vt 0.170272 0.385153
vt 0.142020 0.364046
vt 0.154333 0.801973
vt 0.157209 0.659069
vt 0.142295 0.595384
vt 0.192303 0.148896
vt 0.116175 0.137268
vt 0.200962 0.038506
vt 0.190866 0.049036
vt 0.145676 0.103814
vt 0.155569 0.506007
vt 0.154667 0.553254
vt 0.126965 0.530753
vt 0.138003 0.989512
vt 0.143131 0.977681
vt 0.140625 1.000000
vt 0.137762 0.039357
vt 0.137461 0.012655
vt 0.140625 0.000000
vt 0.119646 0.478666
vt 0.141003 0.428864
vt 0.107430 0.313431
vt 0.154431 0.296260
vt 0.109547 0.361327
vt 0.097666 0.759175
vt 0.106722 0.180939
vt 0.099940 0.227542
vt 0.129196 0.698392
vt 0.122606 0.629653
vt 0.085023 0.280930
vt 0.065828 0.210780
vt 0.090448 0.648784
vt 0.105097 0.582926
vt 0.091596 0.523603
vt 0.168984 0.964293
vt 0.110343 0.982153
vt 0.077780 0.954711
vt 0.094746 0.430391
vt 0.071374 0.393687
vt 0.107591 0.848722
vt 0.058223 0.846306
vt 0.030262 0.072399
vt 0.077776 0.008519
vt 0.063617 0.119076
vt 0.054124 0.360359
vt 0.069925 0.724154
vt 0.077011 0.255597
vt 0.058421 0.660033
vt 0.047180 0.585214
vt 0.066850 0.555255
vt 0.069918 0.465322
vt 0.021858 0.806135
vt 0.026398 0.705325
vt 0.052271 0.256682
vt 0.011837 0.179596
vt 0.045086 0.481601
vt 0.013522 0.499619
vt 0.027400 0.386721
vt 0.027909 0.314009
vt 0.011891 0.932359
vt 0.005222 0.879384
vt 0.001270 0.350263
vt 0.008236 0.423250
vt 0.004752 0.267091
vt 0.003867 0.736195
vt 0.002057 0.675714
vt 0.030749 0.618993
vt 0.005699 0.620816
vt 0.007070 0.553265
vt 0.028264 0.952198
vt 0.016610 0.988242
vt 0.997353 0.189510
vt 0.983313 0.234850
vt 0.967680 0.170259
vt 0.979643 0.114771
vt 0.956333 0.062097
vt 1.000000 0.078125
vt 0.990444 0.558336
vt 0.971968 0.503003
vt 0.995049 0.480290
vt 0.948160 0.433875
vt 0.979434 0.426153
vt 0.997956 0.420391
vt 0.960490 0.364921
vt 0.991190 0.333883
vt 0.997873 0.810083
vt 0.937197 0.829105
vt 0.965788 0.766093
vt 0.996330 0.270130
vt 0.959837 0.306756
vt 0.950735 0.227195
vt 1.000000 0.289062
vt 0.995022 0.738808
vt 0.978343 0.690912
vt 0.964181 0.651526
vt 0.923056 0.699762
vt 0.928770 0.644153
vt 0.955127 0.583159
vt 0.926146 0.583965
vt 0.921208 0.137604
vt 0.909101 0.211105
vt 0.990410 0.614502
vt 0.936912 0.509130
vt 0.876845 0.647927
vt 0.890509 0.591002
vt 0.861494 0.086573
vt 0.894248 0.536653
vt 0.909929 0.461412
vt 0.879280 0.490282
vt 0.967738 0.886843
vt 0.976886 0.940512
vt 0.879877 0.889067
vt 0.911391 0.394519
vt 0.906702 0.357220
vt 0.932636 0.286305
vt 0.893448 0.283678
vt 0.895018 0.788743
vt 0.890471 0.722695
vt 0.839920 0.812354
vt 0.860852 0.743138
vt 0.869412 0.176760
vt 0.843245 0.132405
vt 0.863091 0.552303
vt 0.880432 0.433774
vt 0.843524 0.600175
vt 0.827929 0.548913
vt 0.833510 0.487815
vt 0.854540 0.400470
vt 0.873979 0.941274
vt 0.822088 0.934084
vt 0.873623 0.344381
vt 0.853042 0.287775
vt 0.836637 0.668298
vt 0.836412 0.349624
vt 0.787093 0.303310
vt 0.815883 0.285236
vt 0.799753 0.739080
vt 0.814665 0.223928
vt 0.849649 0.238766
vt 0.805427 0.651511
vt 0.801816 0.170418
vt 0.806942 0.482715
vt 0.825347 0.986991
vt 0.829468 0.990148
vt 0.828125 1.000000
vt 0.831961 0.022284
vt 0.827334 0.033101
vt 0.827416 0.010812
vt 0.812001 0.428529
vt 0.791850 0.385587
vt 0.794593 0.568798
vt 0.782619 0.494684
vt 0.764629 0.221618
vt 0.773497 0.557829
vt 0.787913 0.430051
vt 0.742747 0.335139
vt 0.765526 0.325233
vt 0.710261 0.338027
vt 0.736389 0.969569
vt 0.682823 0.511772
vt 0.644197 0.017486
vt 0.649617 0.035968
vt 0.642507 0.042610
vt 0.539445 0.970281
vt 0.558128 0.944038
vt 0.546108 0.988395
vt 0.506122 0.055260
vt 0.466798 0.054690
vt 0.445313 0.968750
vt 0.462910 0.949679
vt 0.453524 0.986891
vt 0.483452 0.954939
vt 0.432607 0.945884
vt 0.316763 0.052652
vt 0.242732 0.042454
vt 0.275552 0.039709
vt 0.232355 0.982776
vt 0.242646 0.966918
vt 0.146415 0.104440
vt 0.186760 0.941407
vt 0.180072 0.967212
vt 0.105028 0.051023
vt 0.093305 0.061318
vt 0.101321 0.032218
vt 0.007243 0.104433
vt 0.004570 0.044220
vt 0.016249 0.014832
vt 0.890467 0.991313
vt 0.885899 0.953074
vt 0.899631 0.963975
vt 0.876953 0.054687
vt 0.832031 0.984375
vt 0.835938 0.968750
vt 0.752731 0.953806
s 1
f 199/1/1 215/2/2 23/3/3
f 196/4/4 19/5/5 197/6/6
f 195/7/7 194/8/8 19/5/5
f 192/9/9 23/3/3 305/10/10
f 16/11/11 24/12/12 217/13/13
f 16/11/11 197/6/6 24/12/12
f 17/14/14 213/15/15 198/16/16
f 217/13/13 214/17/17 213/15/15
f 200/18/18 212/19/19 318/20/20
f 214/17/17 27/21/21 213/15/15
f 212/19/22 30/22/23 18/23/24
f 194/8/8 18/23/24 19/5/5
f 221/24/25 215/2/26 14/25/27
f 197/6/6 19/5/5 216/26/28
f 216/26/28 19/5/5 1/27/29
f 219/28/30 208/29/31 5/30/32
f 224/31/33 32/32/34 26/33/35
f 305/10/10 218/34/36 25/35/37
f 305/36/10 25/35/37 203/37/38
f 214/17/17 2/38/39 27/21/21
f 21/39/40 219/40/30 28/41/41
f 30/22/42 21/39/40 28/41/41
f 221/24/25 20/42/43 223/43/44
f 215/2/26 223/43/44 39/44/45
f 1/27/29 224/31/33 216/26/28
f 30/22/42 28/41/41 4/45/46
f 223/43/44 222/46/47 34/47/48
f 18/23/24 29/48/49 1/27/29
f 29/48/49 226/49/50 31/50/51
f 3/51/52 218/34/36 227/52/53
f 31/50/51 35/53/54 224/31/33
f 32/32/34 36/54/55 2/38/39
f 32/32/34 230/55/56 36/54/55
f 219/40/30 5/56/32 225/57/57
f 27/21/21 36/54/55 37/58/58
f 3/51/52 232/59/59 41/60/60
f 201/61/61 3/51/52 203/62/38
f 230/55/56 229/63/62 36/54/55
f 36/54/55 229/63/62 33/64/63
f 222/46/47 37/58/58 34/47/48
f 39/44/45 223/43/44 34/47/48
f 29/48/64 38/65/65 226/49/66
f 218/34/67 39/44/45 227/52/68
f 227/52/53 232/59/59 3/51/52
f 226/49/66 38/65/65 40/66/69
f 38/65/65 50/67/70 40/66/69
f 227/52/68 46/68/71 235/69/72
f 228/70/73 44/71/74 231/72/75
f 3/51/52 41/60/60 203/73/38
f 35/53/54 231/72/76 230/55/56
f 225/57/57 5/74/32 202/75/77
f 230/55/56 231/72/76 229/63/62
f 225/57/57 202/75/77 28/41/41
f 28/41/41 202/75/77 247/76/78
f 229/63/62 234/77/79 33/64/63
f 33/64/63 234/77/79 45/78/80
f 41/60/60 232/59/59 204/79/81
f 203/80/38 41/60/60 204/81/81
f 231/72/75 233/82/82 234/77/83
f 28/41/41 247/76/78 52/83/84
f 38/65/65 237/84/85 50/67/70
f 38/65/65 42/85/86 237/84/85
f 40/66/69 50/67/70 43/86/87
f 235/69/88 244/87/89 232/59/59
f 42/85/86 53/88/90 56/89/91
f 6/90/92 57/91/93 238/92/94
f 237/84/85 56/89/91 62/93/95
f 50/67/70 237/84/85 62/93/95
f 235/69/72 238/92/96 243/94/97
f 43/86/87 62/93/95 55/95/98
f 235/69/88 243/94/99 244/87/89
f 239/96/100 48/97/101 51/98/102
f 51/98/102 48/97/101 233/82/82
f 48/97/101 49/99/103 233/82/82
f 42/85/86 47/100/104 53/88/90
f 49/99/103 241/101/105 236/102/106
f 55/95/98 66/103/107 239/96/100
f 239/96/100 66/103/107 48/97/101
f 48/97/101 54/104/108 49/99/103
f 56/89/91 53/88/90 245/105/109
f 57/91/110 246/106/111 243/94/112
f 242/107/113 63/108/114 55/95/98
f 70/109/115 76/110/116 72/111/117
f 245/105/109 248/112/118 62/93/95
f 242/107/113 248/112/118 63/108/114
f 242/107/113 62/93/95 248/112/118
f 248/112/118 58/113/119 63/108/114
f 244/87/89 64/114/120 65/115/121
f 204/116/81 65/115/121 203/117/38
f 66/103/107 59/118/122 60/119/123
f 241/101/105 54/104/108 61/120/124
f 54/104/108 60/119/123 61/120/124
f 47/100/104 79/121/125 53/88/90
f 241/101/105 61/120/124 69/122/126
f 65/123/121 255/124/127 203/125/38
f 61/120/124 60/119/123 75/126/128
f 70/109/115 69/122/129 80/127/130
f 79/121/125 251/128/131 245/105/109
f 70/109/115 80/127/130 76/110/116
f 80/127/130 77/129/132 76/110/116
f 245/105/109 71/130/133 248/112/118
f 248/112/118 78/131/134 58/113/119
f 71/130/133 78/131/134 248/112/118
f 64/114/120 254/132/135 65/123/121
f 59/118/122 67/133/136 68/134/137
f 77/129/132 253/135/138 76/110/116
f 78/131/134 67/133/136 58/113/119
f 78/131/134 73/136/139 67/133/136
f 254/132/140 64/114/141 249/137/142
f 246/106/111 249/137/143 64/114/144
f 68/134/137 67/133/136 87/138/145
f 60/119/123 68/134/137 74/139/146
f 250/140/147 104/141/148 240/142/149
f 69/122/129 75/126/150 86/143/151
f 251/128/131 73/136/139 78/131/134
f 104/141/148 98/144/152 240/142/149
f 75/126/150 83/145/153 85/146/154
f 240/142/149 98/144/152 79/121/125
f 79/121/125 252/147/155 251/128/131
f 86/143/151 85/146/154 94/148/156
f 86/143/151 94/148/156 77/129/132
f 67/133/136 73/136/139 81/149/157
f 67/133/136 81/149/157 87/138/145
f 87/138/145 81/149/157 82/150/158
f 5/151/32 84/152/159 250/153/147
f 74/139/146 87/138/145 83/145/160
f 87/138/145 82/150/158 83/145/160
f 91/154/161 99/155/162 73/136/139
f 246/106/111 90/156/163 259/157/164
f 81/149/157 99/155/162 82/150/158
f 82/150/158 258/158/165 88/159/166
f 83/145/160 88/159/166 92/160/167
f 83/145/153 97/161/168 93/162/169
f 252/147/155 91/154/161 251/128/131
f 97/161/168 105/163/170 256/164/171
f 89/165/172 256/164/173 96/166/174
f 89/165/172 96/166/174 257/167/175
f 99/155/162 95/168/176 258/158/165
f 88/159/166 102/169/177 261/170/178
f 5/171/32 104/141/148 84/172/159
f 255/173/127 113/174/179 203/175/38
f 92/160/167 88/159/166 261/170/178
f 92/160/180 262/176/181 97/161/168
f 102/169/177 109/177/182 110/178/183
f 249/137/142 101/179/184 103/180/185
f 92/160/180 261/170/186 262/176/181
f 260/181/187 205/182/187 104/141/187
f 262/176/181 264/183/188 105/163/170
f 264/183/188 266/184/189 105/163/170
f 104/141/148 108/185/190 106/186/191
f 257/167/175 96/166/174 259/157/164
f 265/187/192 268/188/193 266/184/189
f 108/185/190 263/189/194 269/190/195
f 266/184/189 116/191/196 101/179/197
f 110/178/198 117/192/199 107/193/200
f 259/157/164 266/184/189 101/179/197
f 101/179/201 112/194/202 103/180/203
f 110/178/198 107/193/200 111/195/204
f 113/196/179 206/197/205 203/198/38
f 261/170/206 111/195/204 100/199/207
f 205/182/208 263/189/194 104/141/148
f 100/199/207 115/200/209 265/187/210
f 100/199/211 265/187/192 264/183/188
f 267/201/212 120/202/213 121/203/214
f 271/204/215 272/205/216 114/206/217
f 263/189/194 205/182/208 273/207/218
f 117/192/199 7/208/219 120/202/213
f 101/179/220 116/191/221 10/209/222
f 116/191/223 125/210/223 10/209/223
f 119/211/224 124/212/225 115/200/209
f 114/206/217 119/211/224 115/200/209
f 269/190/226 9/213/227 7/208/219
f 120/202/213 7/208/219 126/214/228
f 121/203/214 126/214/228 127/215/229
f 120/202/213 126/214/228 121/203/214
f 270/216/230 10/209/231 281/217/232
f 113/218/179 112/194/233 206/219/205
f 270/216/230 8/220/234 112/194/202
f 121/203/214 123/221/235 271/204/215
f 121/203/214 118/222/236 123/221/235
f 118/222/236 122/223/237 123/221/235
f 118/222/236 127/215/229 122/223/237
f 207/224/238 274/225/239 5/226/32
f 206/227/205 282/228/240 203/229/38
f 122/223/237 133/230/241 123/221/235
f 275/231/242 124/212/225 119/211/224
f 124/212/225 129/232/243 276/233/244
f 124/212/225 128/234/245 129/232/243
f 7/208/219 9/213/227 277/235/246
f 125/210/247 280/236/247 10/209/247
f 125/210/248 279/237/249 280/236/250
f 126/214/228 278/238/251 130/239/252
f 285/240/253 279/237/254 125/210/255
f 279/237/249 138/241/256 280/236/250
f 130/239/252 278/238/251 139/242/257
f 130/239/252 139/242/257 131/243/258
f 122/223/237 132/244/259 133/230/241
f 274/245/260 207/246/261 288/247/262
f 283/248/263 128/234/245 124/212/225
f 133/230/241 283/248/263 275/231/242
f 128/234/245 283/248/263 11/249/264
f 277/235/265 137/250/266 144/251/267
f 9/213/268 137/250/266 277/235/265
f 12/252/269 203/253/38 140/254/270
f 128/234/245 11/249/264 129/232/243
f 129/232/243 143/255/271 285/240/272
f 277/235/265 144/251/267 134/256/273
f 277/235/246 134/256/274 278/238/251
f 279/237/249 286/257/275 138/241/256
f 135/258/276 287/259/277 139/242/257
f 134/256/274 135/258/276 139/242/257
f 281/217/278 138/241/279 140/254/270
f 280/236/280 138/241/279 281/217/278
f 139/242/257 136/260/281 131/243/258
f 139/242/257 287/259/277 136/260/281
f 132/244/259 136/260/281 284/261/282
f 134/256/273 290/262/283 148/263/284
f 138/241/279 141/264/285 153/265/286
f 136/260/281 287/259/287 146/266/288
f 287/259/289 296/267/290 146/266/291
f 284/261/282 136/260/281 146/266/288
f 146/266/291 147/268/292 143/255/293
f 143/255/293 289/269/294 285/240/295
f 285/240/295 289/269/294 141/264/296
f 144/251/267 292/270/297 169/271/298
f 147/268/292 155/272/299 289/269/294
f 154/273/300 155/272/299 147/268/292
f 289/269/294 291/274/301 141/264/296
f 148/263/284 156/275/302 150/276/303
f 142/277/304 148/263/284 145/278/305
f 148/263/284 150/276/303 145/278/305
f 142/277/304 145/278/305 295/279/306
f 142/277/304 295/279/306 296/267/290
f 288/280/262 207/281/261 292/270/297
f 153/282/286 293/283/307 294/284/308
f 152/285/309 300/286/310 12/287/269
f 295/288/306 163/289/311 296/290/290
f 163/289/311 298/291/312 297/292/313
f 296/290/290 297/292/313 154/293/300
f 297/292/313 159/294/314 154/293/300
f 154/293/300 159/294/314 155/295/299
f 290/296/283 299/297/315 149/298/316
f 291/299/317 160/300/318 293/283/307
f 293/283/307 160/300/318 158/301/319
f 155/295/299 160/300/320 289/302/294
f 156/303/302 149/298/316 150/304/303
f 159/294/314 160/300/320 155/295/299
f 151/305/321 176/306/322 157/307/323
f 161/308/324 157/307/323 301/309/325
f 294/284/308 177/310/326 152/285/309
f 158/301/319 13/311/327 294/284/308
f 145/312/305 151/305/321 161/308/324
f 161/308/324 162/313/328 163/289/311
f 176/306/322 302/314/329 157/307/323
f 302/314/329 164/315/330 157/307/323
f 177/310/326 168/316/331 300/286/310
f 162/313/328 301/309/325 165/317/332
f 166/318/333 165/317/332 180/319/334
f 162/313/328 166/318/333 298/291/312
f 169/320/298 292/321/297 306/322/335
f 298/291/312 167/323/336 159/294/314
f 169/320/298 306/322/335 299/297/315
f 167/323/336 173/324/337 159/294/314
f 170/325/338 173/324/339 182/326/340
f 149/298/316 307/327/341 175/328/342
f 170/325/338 182/326/340 13/311/327
f 158/301/319 170/325/338 13/311/327
f 306/322/335 310/329/343 299/297/315
f 307/327/341 308/330/344 175/328/342
f 303/331/345 311/332/346 177/310/326
f 165/317/332 164/315/330 178/333/347
f 165/317/332 178/333/347 180/319/334
f 166/318/333 180/319/334 174/334/348
f 302/314/329 304/335/349 164/315/330
f 180/319/334 183/336/350 312/337/351
f 174/334/348 180/319/334 172/338/352
f 171/339/353 313/340/354 306/322/335
f 182/326/340 181/341/355 186/342/356
f 307/327/341 310/329/343 308/330/344
f 175/328/342 187/343/357 302/314/329
f 179/344/358 319/345/359 184/346/360
f 310/329/343 316/347/361 308/330/344
f 184/346/360 185/348/362 309/349/363
f 316/347/361 191/350/364 187/343/357
f 309/349/363 185/348/362 303/331/345
f 303/331/345 185/348/362 190/351/365
f 187/343/357 191/350/364 304/335/349
f 178/333/347 304/335/349 183/336/350
f 312/337/351 183/336/350 189/352/366
f 208/353/31 207/354/238 5/355/32
f 300/356/310 305/357/10 203/358/38
f 312/337/351 189/352/366 314/359/367
f 172/338/352 312/337/351 314/359/367
f 172/338/368 314/359/369 179/344/358
f 314/359/369 315/360/370 179/344/358
f 168/316/331 192/9/9 305/10/10
f 189/352/371 317/361/372 211/362/373
f 313/340/354 200/18/18 318/20/20
f 315/360/370 319/345/359 179/344/358
f 184/346/360 319/345/359 185/348/362
f 319/345/359 193/363/374 185/348/362
f 316/347/361 195/7/375 191/350/364
f 311/332/346 190/351/365 192/9/9
f 183/336/350 191/350/364 317/361/376
f 317/361/372 196/4/4 210/364/377
f 318/20/20 212/19/19 316/347/361
f 195/7/7 212/19/22 194/8/8
f 190/351/365 193/363/374 199/1/1
f 192/9/9 199/1/1 23/3/3
f 210/364/377 196/4/4 197/6/6
f 210/364/377 197/6/6 16/11/11
f 211/362/373 16/11/11 17/14/14
f 188/365/378 198/16/16 315/360/379
f 198/16/16 15/366/380 209/367/381
f 315/360/370 209/367/382 319/345/359
f 198/16/16 22/368/383 15/366/380
f 198/16/16 213/15/15 22/368/383
f 194/8/8 212/19/22 18/23/24
f 58/113/119 59/118/122 66/103/107 63/108/114
f 209/367/381 15/366/380 14/25/27
f 193/363/374 14/25/384 215/2/2
f 199/1/1 193/363/374 215/2/2
f 196/4/4 195/7/7 19/5/5
f 17/14/14 16/11/11 217/13/13
f 200/18/18 208/369/385 21/39/386
f 17/14/14 217/13/13 213/15/15
f 200/18/18 21/39/386 212/19/19
f 22/368/383 27/21/21 20/42/43
f 213/15/15 27/21/21 22/368/383
f 212/19/22 21/39/387 30/22/23
f 22/368/383 20/42/43 221/24/25
f 23/3/3 215/2/2 218/34/36
f 24/12/12 216/26/28 26/33/35
f 24/12/12 197/6/6 216/26/28
f 305/10/10 23/3/3 218/34/36
f 220/370/388 24/12/12 26/33/35
f 217/13/13 24/12/12 220/370/388
f 217/13/13 220/370/388 214/17/17
f 208/369/31 219/28/30 21/39/40
f 216/26/28 224/31/33 26/33/35
f 26/33/35 32/32/34 220/370/388
f 214/17/17 220/370/388 2/38/39
f 220/370/388 32/32/34 2/38/39
f 20/42/43 27/21/21 222/46/47
f 223/43/44 20/42/43 222/46/47
f 215/2/26 221/24/25 223/43/44
f 19/5/5 18/23/24 1/27/29
f 29/48/64 30/22/42 4/45/46
f 30/22/23 29/48/49 18/23/24
f 1/27/29 29/48/49 31/50/51
f 1/27/29 31/50/51 224/31/33
f 218/34/67 215/2/26 39/44/45
f 224/31/33 35/53/54 32/32/34
f 218/34/36 3/51/52 25/35/37
f 25/35/37 3/51/52 201/61/61
f 32/32/34 35/53/54 230/55/56
f 203/371/38 25/372/37 201/373/61
f 28/41/41 219/40/30 225/57/57
f 222/46/47 27/21/21 37/58/58
f 27/21/21 2/38/39 36/54/55
f 31/50/51 228/70/389 35/53/54
f 31/50/51 226/49/50 228/70/389
f 37/58/58 36/54/55 33/64/63
f 34/47/48 37/58/58 33/64/63
f 38/65/65 29/48/64 4/45/46
f 227/52/68 39/44/45 46/68/71
f 226/49/66 40/66/69 228/70/73
f 34/47/48 33/64/63 45/78/80
f 38/65/65 4/45/46 42/85/86
f 46/68/71 34/47/48 45/78/80
f 39/44/45 34/47/48 46/68/71
f 228/70/73 40/66/69 44/71/74
f 35/53/54 228/70/389 231/72/76
f 229/63/62 231/72/76 234/77/79
f 4/45/46 28/41/41 52/83/84
f 44/71/74 51/98/102 233/82/82
f 247/374/78 202/375/77 5/376/32
f 231/72/75 44/71/74 233/82/82
f 234/77/83 49/99/103 236/102/106
f 234/77/83 233/82/82 49/99/103
f 45/78/80 234/77/79 236/102/390
f 4/45/46 52/83/84 42/85/86
f 238/92/96 45/78/80 236/102/390
f 46/68/71 45/78/80 238/92/96
f 227/52/53 235/69/88 232/59/59
f 44/71/74 43/86/87 51/98/102
f 40/66/69 43/86/87 44/71/74
f 237/84/85 42/85/86 56/89/91
f 236/102/106 6/90/92 238/92/94
f 235/69/72 46/68/71 238/92/96
f 238/92/94 57/91/93 243/94/391
f 43/86/87 50/67/70 62/93/95
f 43/86/87 55/95/98 51/98/102
f 232/59/59 244/87/89 204/377/81
f 51/98/102 55/95/98 239/96/100
f 42/85/86 52/83/84 47/100/104
f 236/102/106 241/101/105 6/90/92
f 55/95/98 63/108/114 66/103/107
f 48/97/101 66/103/107 54/104/108
f 47/100/104 52/83/84 240/142/149
f 52/83/84 247/76/78 240/142/149
f 49/99/103 54/104/108 241/101/105
f 6/90/92 70/109/392 57/91/93
f 62/93/95 56/89/91 245/105/109
f 55/95/98 62/93/95 242/107/113
f 243/94/112 246/106/111 64/114/144
f 243/94/99 64/114/120 244/87/89
f 244/87/89 65/115/121 204/378/81
f 70/109/392 6/90/92 69/122/126
f 57/91/110 70/109/115 72/111/117
f 57/91/110 72/111/117 246/106/111
f 256/164/171 85/146/154 93/162/169 97/161/168
f 250/379/147 247/380/78 5/381/32
f 54/104/108 66/103/107 60/119/123
f 247/382/78 250/383/147 240/142/149
f 6/90/92 241/101/105 69/122/126
f 255/124/127 65/123/121 254/132/393
f 60/119/123 59/118/122 68/134/137
f 47/100/104 240/142/149 79/121/125
f 69/122/126 61/120/124 75/126/128
f 53/88/90 79/121/125 245/105/109
f 245/105/109 251/128/131 71/130/133
f 72/111/117 76/110/116 246/106/111
f 59/118/122 58/113/119 67/133/136
f 76/110/116 253/135/138 90/156/163
f 76/110/116 90/156/163 246/106/111
f 74/139/146 68/134/137 87/138/145
f 75/126/128 60/119/123 74/139/146
f 80/127/130 69/122/129 86/143/151
f 86/143/151 75/126/150 85/146/154
f 80/127/130 86/143/151 77/129/132
f 71/130/133 251/128/131 78/131/134
f 250/140/147 84/152/159 104/141/148
f 85/146/154 83/145/153 93/162/169
f 75/126/128 74/139/146 83/145/160
f 79/121/125 98/144/152 252/147/155
f 77/129/132 94/148/156 253/135/138
f 251/128/131 91/154/161 73/136/139
f 90/156/163 253/135/138 257/167/175
f 82/150/158 99/155/162 258/158/165
f 81/149/157 73/136/139 99/155/162
f 249/137/142 103/180/185 254/132/140
f 249/137/143 246/106/111 259/157/164
f 103/180/394 255/384/127 254/132/393
f 83/145/160 82/150/158 88/159/166
f 83/145/153 92/160/180 97/161/168
f 108/185/190 109/177/182 258/158/165 95/168/176
f 85/146/154 256/164/171 94/148/156
f 252/147/155 98/144/152 91/154/161
f 89/165/172 94/148/156 256/164/173
f 257/167/175 253/135/138 89/165/172
f 253/135/138 94/148/156 89/165/172
f 98/144/152 104/141/148 106/186/191
f 97/161/168 262/176/181 105/163/170
f 98/144/152 106/186/191 91/154/161
f 96/166/174 256/164/173 105/163/395
f 91/154/161 106/186/191 95/168/176
f 99/155/162 91/154/161 95/168/176
f 90/156/163 257/167/175 259/157/164
f 249/137/143 259/157/164 101/179/197
f 88/159/166 258/158/165 102/169/177
f 260/181/396 104/141/148 5/171/32
f 261/170/178 102/169/177 110/178/183
f 103/180/394 113/385/179 255/386/127
f 262/176/181 261/170/186 264/183/188
f 261/170/186 100/199/211 264/183/188
f 96/166/397 105/163/170 266/184/189
f 95/168/176 106/186/191 108/185/190
f 259/157/164 96/166/174 266/184/189
f 102/169/177 258/158/165 109/177/182
f 108/185/190 104/141/148 263/189/194
f 264/183/188 265/187/192 266/184/189
f 265/187/210 115/200/209 268/188/398
f 109/177/182 108/185/190 269/190/195
f 117/192/199 109/177/399 269/190/226
f 110/178/198 109/177/399 117/192/199
f 101/179/201 270/216/230 112/194/202
f 113/196/179 103/180/394 112/194/233
f 111/195/204 107/193/200 267/201/212
f 261/170/206 110/178/198 111/195/204
f 5/387/32 205/182/208 260/388/396
f 111/195/204 114/206/217 100/199/207
f 267/201/212 107/193/200 120/202/213
f 267/201/212 121/203/214 271/204/215
f 111/195/204 267/201/212 271/204/215
f 111/195/204 271/204/215 114/206/217
f 100/199/207 114/206/217 115/200/209
f 269/190/195 263/189/194 273/207/218
f 269/190/226 273/207/400 9/213/227
f 268/188/398 115/200/209 125/210/401
f 266/184/189 268/188/193 116/191/196
f 115/200/209 276/233/244 125/210/401
f 116/191/402 268/188/402 125/210/402
f 117/192/199 269/190/226 7/208/219
f 107/193/200 117/192/199 120/202/213
f 270/216/403 101/179/220 10/209/222
f 115/200/209 124/212/225 276/233/244
f 126/214/228 7/208/219 278/238/251
f 270/216/230 281/217/232 8/220/234
f 206/219/205 112/194/233 8/389/404
f 271/204/215 123/221/235 272/205/216
f 205/390/208 5/391/32 274/245/239
f 272/205/216 123/221/235 275/231/242
f 205/182/208 274/245/239 273/207/218
f 272/205/216 275/231/242 119/211/224
f 114/206/217 272/205/216 119/211/224
f 206/227/205 281/217/278 282/392/240
f 206/227/205 8/220/404 281/217/278
f 123/221/235 133/230/241 275/231/242
f 288/247/262 273/207/405 274/245/260
f 137/250/266 273/207/405 288/247/262
f 9/213/268 273/207/405 137/250/266
f 276/233/244 285/240/272 125/210/401
f 278/238/251 7/208/219 277/235/246
f 127/215/229 126/214/228 130/239/252
f 118/222/236 121/203/214 127/215/229
f 276/233/244 129/232/243 285/240/272
f 285/240/253 286/257/406 279/237/254
f 10/209/231 280/236/407 281/217/232
f 122/223/237 127/215/229 131/243/258
f 127/215/229 130/239/252 131/243/258
f 282/392/240 281/217/278 140/254/270
f 122/223/237 131/243/258 132/244/259
f 140/393/270 203/394/38 282/392/240
f 283/248/263 133/230/241 132/244/259
f 275/231/242 283/248/263 124/212/225
f 221/24/25 14/25/27 15/366/380 22/368/383
f 283/248/263 132/244/259 284/261/282
f 137/250/266 288/247/262 144/251/267
f 283/248/263 284/261/282 11/249/264
f 129/232/243 11/249/264 143/255/271
f 286/257/408 285/240/408 141/264/408
f 278/238/251 134/256/274 139/242/257
f 131/243/258 136/260/281 132/244/259
f 135/258/409 134/256/273 148/263/284
f 138/241/256 286/257/275 141/264/410
f 142/277/304 135/258/409 148/263/284
f 287/259/289 135/258/409 142/277/304
f 140/254/270 138/241/279 153/265/286
f 287/259/289 142/277/304 296/267/290
f 11/249/264 284/261/282 146/266/288
f 143/255/411 11/249/264 146/266/288
f 143/255/293 147/268/292 289/269/294
f 134/256/273 144/251/267 290/262/283
f 146/266/291 296/267/290 154/273/300
f 144/251/267 288/247/262 292/270/297
f 146/266/291 154/273/300 147/268/292
f 290/262/283 144/251/267 169/271/298
f 148/263/284 290/262/283 156/275/302
f 153/265/286 141/264/285 291/274/317
f 140/254/270 153/265/286 152/395/309
f 140/254/270 152/395/309 12/252/269
f 300/396/310 203/397/38 12/252/269
f 153/282/286 291/299/317 293/283/307
f 145/312/305 150/304/303 151/305/321
f 153/282/286 294/284/308 152/285/309
f 295/288/306 145/312/305 161/308/324
f 295/288/306 161/308/324 163/289/311
f 296/290/290 163/289/311 297/292/313
f 290/296/283 169/320/298 299/297/315
f 156/303/302 290/296/283 149/298/316
f 289/302/294 160/300/320 291/299/301
f 297/292/313 298/291/312 159/294/314
f 149/298/316 299/297/315 307/327/341
f 158/301/319 160/300/318 170/325/338
f 150/304/303 149/298/316 176/306/322
f 151/305/321 150/304/303 176/306/322
f 293/283/307 158/301/319 294/284/308
f 161/308/324 151/305/321 157/307/323
f 294/284/308 13/311/327 177/310/326
f 152/285/309 177/310/326 300/286/310
f 161/308/324 301/309/325 162/313/328
f 163/289/311 162/313/328 298/291/312
f 13/311/327 303/331/345 177/310/326
f 301/309/325 157/307/323 164/315/330
f 166/318/333 162/313/328 165/317/332
f 165/317/332 301/309/325 164/315/330
f 167/323/336 298/291/312 166/318/333
f 170/325/338 160/300/318 173/324/339
f 159/294/314 173/324/337 160/300/320
f 176/306/322 149/298/316 175/328/342
f 167/323/336 166/318/333 174/334/348
f 172/338/352 167/323/336 174/334/348
f 173/324/337 167/323/336 172/338/352
f 299/297/315 310/329/343 307/327/341
f 181/341/355 173/324/339 172/338/368
f 182/326/340 173/324/339 181/341/355
f 182/326/340 309/349/363 13/311/327
f 176/306/322 175/328/342 302/314/329
f 177/310/326 311/332/346 168/316/331
f 207/398/261 171/399/353 292/400/297
f 305/401/10 300/286/310 168/316/331
f 292/321/297 171/399/353 306/322/335
f 164/315/330 304/335/349 178/333/347
f 180/319/334 178/333/347 183/336/350
f 172/338/352 180/319/334 312/337/351
f 181/341/355 172/338/368 179/344/358
f 186/342/356 181/341/355 179/344/358
f 309/349/363 182/326/340 186/342/356
f 175/328/342 308/330/344 187/343/357
f 13/311/327 309/349/363 303/331/345
f 302/314/329 187/343/357 304/335/349
f 186/342/356 184/346/360 309/349/363
f 186/342/356 179/344/358 184/346/360
f 308/330/344 316/347/361 187/343/357
f 311/332/346 303/331/345 190/351/365
f 304/335/349 191/350/364 183/336/350
f 207/354/261 208/353/385 171/402/353
f 208/353/385 313/340/354 171/403/353
f 306/322/335 313/340/354 318/20/20
f 306/322/335 318/20/20 310/329/343
f 168/316/331 311/332/346 192/9/9
f 189/352/366 183/336/350 317/361/376
f 211/362/373 317/361/372 210/364/377
f 188/365/378 189/352/371 211/362/373
f 313/340/354 208/404/385 200/18/18
f 314/359/412 188/365/378 315/360/379
f 189/352/371 188/365/378 314/359/412
f 310/329/343 318/20/20 316/347/361
f 190/351/365 185/348/362 193/363/374
f 192/9/9 190/351/365 199/1/1
f 191/350/364 195/7/375 317/361/376
f 317/361/372 195/7/7 196/4/4
f 319/345/359 14/25/384 193/363/374
f 319/345/359 209/367/382 14/25/384
f 316/347/361 212/19/19 195/7/375
f 211/362/373 210/364/377 16/11/11
f 188/365/378 211/362/373 17/14/14
f 188/365/378 17/14/14 198/16/16
f 315/360/379 198/16/16 209/367/381
